<svg width="606" height="448" viewBox="0 0 606 448" fill="none" xmlns="http://www.w3.org/2000/svg">
<path fill-rule="evenodd" clip-rule="evenodd" d="M663.454 371.654C612.76 473.885 393.384 561.882 175.383 467.401C49.9926 413.056 2.56094 282.103 0.0773055 221.531C-1.87582 173.898 33.6349 123.113 55.0725 101.293C100.641 54.912 343.835 -2.85719 399.384 0.109777C477.803 -2.09045 526.725 65.9682 588.449 69.2135C632.337 71.521 763.759 169.379 663.454 371.654Z" fill="url(#paint0_linear)"/>
<path fill-rule="evenodd" clip-rule="evenodd" d="M357.873 214.158C357.618 217.958 357.93 221.796 358.795 225.506C359.16 227.07 361.507 227.359 362.727 226.314C363.948 225.27 364.273 223.533 364.404 221.932C364.599 219.565 364.536 217.177 364.219 214.824C364.055 213.608 363.803 212.353 363.069 211.37C362.336 210.386 360.995 209.756 359.849 210.195C358.39 210.755 357.978 212.598 357.873 214.158Z" fill="white"/>
<path fill-rule="evenodd" clip-rule="evenodd" d="M173.255 120.888C186.653 114.253 202.653 113.064 216.884 117.647C220.46 110.777 225.727 104.795 232.089 100.378C233.317 99.5258 235.074 98.7563 236.178 99.7628C235.733 106.823 235.288 113.904 235.705 120.965C236.03 126.462 236.877 131.928 236.954 137.433C237.178 153.346 230.939 168.759 222.453 182.222C242.827 195.925 258.187 216.918 265.082 240.484C262.198 241.972 186.752 244.594 145.941 241.332C144.996 241.972 144.112 240.425 144.004 239.288C142.912 227.79 142.299 216.083 144.684 204.783C147.07 193.482 152.771 182.499 162.189 175.814C153.448 156.783 156.848 133.437 146.184 115.413C145.551 114.343 145.018 112.674 146.127 112.11C146.538 111.901 147.029 111.966 147.484 112.043C154.919 113.305 162.004 116.575 167.787 121.414C169.279 122.663 171.512 121.752 173.255 120.888Z" fill="white"/>
<path fill-rule="evenodd" clip-rule="evenodd" d="M462.368 239.32C462.317 239.32 470.115 227.629 474.896 222.19C479.262 217.223 481.822 210.702 481.999 204.091C466.902 203.495 451.88 201 437.399 196.686C435.183 196.025 432.898 195.276 431.218 193.686C427.295 189.976 428.266 183.506 430.288 178.5C432.744 172.424 436.311 166.799 440.761 161.988C442.283 160.343 443.934 158.754 444.93 156.747C445.927 154.741 446.136 152.159 444.792 150.366C442.526 147.346 442.049 143.378 441.813 139.61C441.577 135.841 441.469 131.923 439.757 128.558C438.046 125.192 434.158 122.576 430.547 123.679C429.672 122.342 431.402 120.799 432.925 120.315C438.677 118.487 445.121 120.087 450.163 123.404C455.205 126.721 459.031 131.585 462.317 136.648C463.6 138.624 465.77 140.946 467.861 139.86C482.145 132.443 499.576 131.362 514.667 136.957C516.764 137.735 519.988 138.068 520.416 135.872C522.546 124.938 531.672 115.702 542.58 113.443C538.293 116.517 538.034 122.771 538.892 127.976C539.75 133.182 541.262 138.727 539.121 143.549C537.394 147.441 541.745 151.099 545.268 153.49C550.589 157.101 555.347 161.54 559.319 166.598C563.248 171.602 566.524 178.034 564.729 184.138C562.379 192.129 552.975 195.292 544.883 197.265C536.983 199.191 529.084 201.117 521.184 203.043C521.039 210.749 523.79 218.476 528.773 224.356C532.77 229.073 538.578 233.935 537.307 239.986C539.969 244.206 514.989 243.984 462.368 239.32Z" fill="white"/>
<path fill-rule="evenodd" clip-rule="evenodd" d="M481.327 343.536C484.049 345.22 487.067 347.237 490.179 346.486C497.385 344.748 505.1 345.184 512.063 347.724C514.994 348.793 517.651 345.76 519.488 343.239C524.821 335.919 531.793 329.801 539.745 325.466C545.227 334.466 539.673 346.92 544.44 356.318C551.818 370.864 549.858 389.651 539.637 402.361C550.364 412.841 557.657 426.78 560.152 441.567C558.876 441.943 493.542 450.047 457.667 440.324C457.27 429.902 461.028 419.378 467.937 411.565C457.68 399.486 452.676 383.094 454.438 367.345C454.621 365.706 454.857 363.958 454.127 362.479C450.3 354.73 447.664 346.394 446.34 337.853C446.261 337.343 446.195 336.784 446.464 336.344C446.822 335.759 447.604 335.631 448.287 335.576C459.77 334.64 471.53 337.473 481.327 343.536Z" fill="white"/>
<path fill-rule="evenodd" clip-rule="evenodd" d="M170.599 442.984C171.905 435.169 173.21 427.354 174.516 419.539C174.855 417.51 174.807 414.794 172.851 414.158C166.752 412.176 161.599 407.462 159.083 401.563C158.29 399.704 155.845 399.043 153.9 399.59C151.955 400.137 150.403 401.568 148.932 402.952C149.771 399.671 152.786 397.065 156.154 396.709C157.297 394.782 155.66 392.121 153.49 391.561C151.321 391.001 149.037 391.979 147.225 393.297C147.084 391.209 149.625 390.187 151.55 389.367C153.475 388.547 155.356 385.956 153.714 384.658C152.999 384.092 151.981 384.193 151.078 384.322C148.468 384.696 145.857 385.069 143.247 385.443C143.543 383.341 146.275 382.801 148.391 382.639C150.508 382.476 153.24 381.445 153.005 379.335C152.098 371.206 154.066 362.962 157.352 355.471C160.074 349.264 152.063 343.049 152.589 336.292C152.63 335.769 152.754 335.196 153.176 334.884C153.68 334.512 154.386 334.66 154.985 334.845C159.108 336.118 162.932 338.352 166.065 341.32C167.586 342.761 170.036 341.779 171.949 340.925C179.004 337.776 187.274 337.45 194.556 340.033C201.131 342.366 206.964 331.113 213.48 333.607C211.817 339.08 210.153 344.554 208.49 350.028C208.031 351.538 207.597 353.272 208.431 354.612C211.242 359.126 212.946 364.324 213.354 369.626C213.642 373.361 214.365 378.406 218.099 378.699C216.473 379.415 214.679 380.306 214.116 381.991C213.553 383.677 215.478 385.9 216.935 384.884C218.193 384.006 220.225 384.739 220.635 386.216C218.48 386.005 216.142 386.24 214.457 387.601C212.773 388.961 212.112 391.712 213.539 393.34C216.672 392.049 220.373 392.219 223.375 393.79C221.586 395.106 219.128 394.717 216.911 394.585C214.695 394.452 211.995 394.964 211.211 397.041C208.593 403.975 202.159 409.325 194.864 410.635C191.271 411.281 190.695 416.141 190.991 419.779C191.613 427.413 192.234 435.046 192.855 442.68C191.575 443.895 176.716 445.579 170.599 442.984Z" fill="white"/>
<path fill-rule="evenodd" clip-rule="evenodd" d="M71.1585 410.199C70.9039 414 71.2156 417.838 72.0804 421.548C72.4451 423.112 74.7927 423.401 76.0129 422.356C77.233 421.311 77.5582 419.574 77.6896 417.973C77.8839 415.607 77.8216 413.219 77.5041 410.866C77.3401 409.649 77.088 408.395 76.3546 407.411C75.6211 406.427 74.2803 405.797 73.1345 406.237C71.6751 406.796 71.263 408.64 71.1585 410.199Z" fill="white"/>
<path fill-rule="evenodd" clip-rule="evenodd" d="M366.271 431.151C366.727 431.406 366.662 432.139 366.278 432.493C365.894 432.846 365.338 432.922 364.82 432.982C363.011 433.19 361.021 433.357 359.521 432.323C360.284 431.78 361.046 431.236 361.808 430.693C361.329 430.006 360.389 429.866 359.557 429.765C358.725 429.664 357.779 429.464 357.374 428.731C356.968 427.998 357.852 426.831 358.517 427.341C360.571 428.913 363.591 429.092 365.817 427.773C367.281 426.905 368.668 425.399 370.339 425.725C369.171 427.999 366.857 429.647 364.326 430.008C364.384 430.892 365.471 431.53 366.271 431.151Z" fill="#00160A"/>
<path fill-rule="evenodd" clip-rule="evenodd" d="M75.8067 429.966C73.996 430.176 72.0036 430.343 70.5041 429.307C71.272 428.762 72.0399 428.217 72.8078 427.671C72.2788 427.002 71.3296 426.888 70.4846 426.772C69.6397 426.656 68.6783 426.396 68.3284 425.618C67.9784 424.84 69.0251 423.752 69.6222 424.361C71.0896 425.858 73.5273 425.953 75.51 425.273C77.4927 424.593 79.1848 423.283 80.9927 422.223C81.0389 424.898 77.9063 426.307 75.328 427.021C75.388 427.893 76.4674 428.517 77.2532 428.134C77.7094 428.387 77.647 429.121 77.2637 429.475C76.8805 429.829 76.3248 429.906 75.8067 429.966Z" fill="#00160A"/>
<path fill-rule="evenodd" clip-rule="evenodd" d="M71.8513 424.683C69.0188 423.627 68.4484 419.94 68.332 416.92C68.255 414.922 68.178 412.923 68.101 410.925C68.0579 409.807 68.0179 408.663 68.3483 407.593C68.8995 405.808 70.5371 404.408 72.3859 404.142C74.2348 403.875 76.2011 404.755 77.2342 406.311C77.8246 407.201 78.1124 408.254 78.3381 409.298C78.8194 411.522 79.0598 413.799 79.0537 416.076C79.0479 418.282 78.7763 420.587 77.5519 422.422C76.3274 424.257 73.9186 425.453 71.8513 424.683H71.8513ZM74.3892 423.021C75.8551 422.559 76.3938 420.789 76.6016 419.266C76.9624 416.623 76.9927 413.935 76.6917 411.284C76.5402 409.949 76.28 408.565 75.459 407.502C74.6381 406.439 73.1018 405.818 71.9042 406.426C70.4189 407.18 70.2481 409.196 70.2759 410.862C70.3121 413.032 70.3484 415.202 70.3846 417.372C70.4071 418.722 70.4433 420.128 71.0687 421.325C71.6941 422.522 73.1014 423.427 74.3892 423.021Z" fill="#00160A"/>
<path fill-rule="evenodd" clip-rule="evenodd" d="M359.405 406.693C361.419 405.406 364.271 406.33 365.787 408.176C367.304 410.022 367.758 412.515 367.898 414.9C367.979 416.282 367.973 417.669 367.879 419.051C367.748 420.99 367.418 422.988 366.343 424.608C365.267 426.228 363.284 427.375 361.385 426.959C359.753 426.601 358.52 425.179 357.929 423.616C357.338 422.053 357.281 420.347 357.231 418.676C357.183 417.086 357.135 415.496 357.088 413.905C357.008 411.258 357.173 408.118 359.405 406.693ZM361.799 425.131C362.898 425.403 364.062 424.73 364.686 423.785C365.311 422.841 365.503 421.682 365.621 420.556C365.88 418.078 365.85 415.569 365.531 413.098C365.367 411.832 365.105 410.523 364.326 409.513C363.547 408.502 362.111 407.893 360.952 408.428C359.562 409.07 359.248 410.877 359.18 412.407C359.051 415.306 359.145 418.214 359.461 421.098C359.642 422.748 360.187 424.733 361.799 425.131Z" fill="#00160A"/>
<path fill-rule="evenodd" clip-rule="evenodd" d="M359.159 412.199C358.904 416 359.216 419.838 360.08 423.548C360.445 425.112 362.793 425.401 364.013 424.356C365.233 423.311 365.558 421.574 365.69 419.973C365.884 417.607 365.822 415.219 365.504 412.866C365.34 411.649 365.088 410.395 364.355 409.411C363.621 408.427 362.28 407.797 361.134 408.237C359.675 408.796 359.263 410.64 359.159 412.199Z" fill="white"/>
<path fill-rule="evenodd" clip-rule="evenodd" d="M355.129 229.239C355.336 228.556 356.216 228.307 356.911 228.47C357.605 228.633 358.196 229.077 358.851 229.358C361.297 230.406 364.1 229.042 366.18 227.382C366.878 226.824 368 226.263 368.527 226.984C367.274 229.114 365.041 230.639 362.602 231.031C362.676 231.905 363.745 232.529 364.543 232.163C364.993 232.42 364.926 233.147 364.544 233.497C364.162 233.848 363.611 233.924 363.096 233.983C361.3 234.192 359.333 234.362 357.826 233.364C358.63 232.731 359.434 232.099 360.239 231.467C358.373 231.215 356.582 230.434 355.129 229.239Z" fill="#00160A"/>
<path fill-rule="evenodd" clip-rule="evenodd" d="M448.287 335.576C459.77 334.64 471.53 337.473 481.327 343.536C484.049 345.22 487.067 347.237 490.179 346.486C497.385 344.748 505.1 345.184 512.063 347.724C514.994 348.793 517.651 345.76 519.488 343.239C524.821 335.919 531.793 329.801 539.745 325.466C545.227 334.466 539.673 346.92 544.44 356.318C551.818 370.864 549.858 389.651 539.637 402.361C550.364 412.841 557.657 426.78 560.152 441.567C558.876 441.943 558.039 440.279 557.731 438.985C554.979 427.43 549.513 416.529 541.899 407.412C540.116 405.277 537.201 403.065 534.85 404.55C516.161 416.35 492.47 419.914 471.137 414.134C467.617 413.18 465.118 417.454 463.988 420.922C461.881 427.389 459.774 433.857 457.667 440.324C457.27 429.902 461.028 419.378 467.937 411.565C457.68 399.486 452.676 383.094 454.438 367.345C454.621 365.706 454.857 363.958 454.127 362.479C450.3 354.73 447.664 346.394 446.34 337.853C446.261 337.343 446.195 336.784 446.464 336.344C446.822 335.759 447.604 335.631 448.287 335.576ZM494.863 356.28C490.807 360.005 487.462 364.502 485.061 369.458C483.642 364.705 484.411 359.347 487.108 355.185C483.46 356.549 480.083 358.632 477.227 361.28C477.23 357.322 479.242 353.416 482.464 351.116C481.069 351.156 479.674 351.197 478.279 351.238C479.732 349.435 481.779 348.12 484.022 347.548C473.748 340.221 460.868 336.63 448.285 337.586C450.504 350.701 455.801 363.285 463.63 374.039C460.285 372.671 457.552 369.877 456.258 366.503C454.823 380.022 458.264 394.007 465.808 405.316C467.213 407.422 468.783 409.466 470.822 410.967C474.203 413.457 478.535 414.22 482.717 414.602C499.443 416.129 516.598 412.575 531.34 404.529C534.173 402.982 536.949 401.25 539.195 398.932C542.167 395.865 544.075 391.899 545.301 387.809C548.521 377.075 547.155 365.047 541.611 355.308C540.61 358.295 539.608 361.283 538.607 364.27C538.185 365.531 536.31 366.846 535.951 365.566C540.924 353.783 541.991 340.39 538.945 327.969C527.589 335.505 518.074 345.794 511.445 357.703C511.167 354.929 511.879 352.066 513.426 349.746C506.257 355.238 500.043 361.974 495.147 369.562C494.257 365.199 494.161 360.677 494.863 356.28Z" fill="#00160A"/>
<path fill-rule="evenodd" clip-rule="evenodd" d="M64.6626 231.474C65.6305 231.644 66.6753 231.273 67.3195 230.531C65.364 230.183 63.4925 229.372 61.901 228.183C62.535 227.098 64.1593 227.75 65.3301 228.208C68.166 229.317 71.7068 228.178 73.3634 225.622C73.809 224.935 75.0027 225.723 74.8717 226.531C74.7408 227.34 73.9436 227.84 73.2253 228.234C71.8527 228.986 70.4802 229.738 69.1076 230.49C70.2356 230.592 71.3216 231.107 72.1134 231.917C70.6173 233.136 68.5099 233.16 66.5807 233.125C66.0568 233.116 65.5033 233.098 65.06 232.819C64.6167 232.539 64.3565 231.9 64.6626 231.474Z" fill="#00160A"/>
<path fill-rule="evenodd" clip-rule="evenodd" d="M356.639 210.189C358.192 207.76 362.102 207.337 364.138 209.379C365.307 210.551 365.795 212.23 366.105 213.857C366.523 216.059 366.695 218.309 366.614 220.549C366.539 222.614 366.22 224.755 365.056 226.462C363.892 228.169 361.69 229.309 359.718 228.693C356.765 227.771 356.098 223.963 355.952 220.873C355.875 219.24 355.798 217.607 355.721 215.974C355.627 213.991 355.57 211.862 356.639 210.189ZM357.873 214.158C357.618 217.958 357.93 221.796 358.795 225.506C359.16 227.07 361.507 227.359 362.727 226.315C363.948 225.27 364.273 223.533 364.404 221.932C364.598 219.565 364.536 217.177 364.219 214.824C364.055 213.608 363.803 212.354 363.069 211.37C362.336 210.386 360.995 209.756 359.849 210.195C358.39 210.755 357.978 212.598 357.873 214.158Z" fill="#00160A"/>
<path fill-rule="evenodd" clip-rule="evenodd" d="M65.1585 212.199C64.9039 216 65.2156 219.838 66.0804 223.548C66.4451 225.112 68.7927 225.401 70.0129 224.356C71.233 223.311 71.5582 221.574 71.6896 219.973C71.8839 217.607 71.8216 215.219 71.5041 212.866C71.3401 211.649 71.088 210.395 70.3546 209.411C69.6211 208.427 68.2803 207.797 67.1345 208.237C65.6751 208.796 65.263 210.64 65.1585 212.199Z" fill="white"/>
<path fill-rule="evenodd" clip-rule="evenodd" d="M65.7405 227.363C63.5998 226.294 63.0133 223.555 62.7787 221.173C62.5499 218.851 62.4189 216.52 62.3862 214.187C62.3642 212.628 62.4029 210.999 63.135 209.622C63.931 208.126 65.5468 207.099 67.24 207.015C68.9332 206.931 70.6428 207.792 71.5831 209.203C72.2002 210.129 72.4855 211.233 72.7022 212.324C73.1487 214.571 73.3481 216.868 73.2957 219.159C73.2448 221.386 72.9149 223.715 71.5992 225.512C70.2836 227.308 67.7327 228.358 65.7405 227.363ZM65.1691 223.375C65.3247 224.115 65.5402 224.89 66.0901 225.41C67.1695 226.43 69.0769 225.921 69.9886 224.749C70.9002 223.577 71.0672 222.003 71.1273 220.519C71.216 218.329 71.1469 216.132 70.9207 213.952C70.7925 212.715 70.5974 211.438 69.9182 210.396C69.239 209.355 67.9482 208.613 66.7487 208.942C64.8513 209.461 64.4852 211.952 64.4923 213.919C64.5037 217.085 64.5178 220.277 65.1691 223.375Z" fill="#00160A"/>
<path fill-rule="evenodd" clip-rule="evenodd" d="M462.368 239.32C462.848 232.094 470.115 227.629 474.896 222.19C479.262 217.223 481.822 210.702 481.999 204.091C466.902 203.495 451.88 201 437.399 196.686C435.183 196.025 432.898 195.276 431.218 193.686C427.295 189.976 428.266 183.506 430.288 178.5C432.744 172.424 436.311 166.799 440.761 161.988C442.283 160.343 443.934 158.754 444.93 156.747C445.927 154.741 446.136 152.159 444.792 150.366C442.526 147.346 442.049 143.378 441.813 139.61C441.577 135.841 441.469 131.923 439.757 128.558C438.046 125.192 434.158 122.576 430.547 123.679C429.672 122.342 431.402 120.799 432.925 120.315C438.677 118.487 445.121 120.087 450.163 123.404C455.205 126.721 459.031 131.585 462.317 136.648C463.6 138.624 465.77 140.946 467.861 139.86C482.145 132.443 499.576 131.362 514.667 136.957C516.764 137.735 519.988 138.068 520.416 135.872C522.546 124.938 531.672 115.702 542.58 113.443C538.293 116.517 538.034 122.771 538.892 127.976C539.75 133.182 541.262 138.727 539.121 143.549C537.394 147.441 541.745 151.099 545.268 153.49C550.589 157.101 555.347 161.54 559.319 166.598C563.248 171.602 566.524 178.034 564.729 184.138C562.379 192.129 552.975 195.292 544.883 197.265C536.983 199.191 529.084 201.117 521.184 203.043C521.039 210.749 523.79 218.476 528.773 224.356C532.77 229.073 538.578 233.935 537.307 239.986C534.605 233.552 529.533 228.466 525.46 222.8C521.387 217.134 518.175 210.043 520.018 203.312C516.412 202.022 512.627 204.599 509.9 207.288C507.174 209.977 504.297 213.147 500.473 213.362C494.175 213.717 490.242 206.03 484.085 204.656C483.943 208.777 482.865 212.864 480.955 216.519C478.924 220.406 476.006 223.746 473.117 227.046C469.534 231.137 465.951 235.228 462.368 239.32ZM468.236 141.563C464.407 143.426 470.338 150.703 466.91 153.229C465.148 143.663 460.15 134.723 452.925 128.211C448.232 123.981 442.006 120.649 435.799 121.824C439.428 123.249 441.637 127.022 442.588 130.803C443.538 134.585 443.504 138.543 444.166 142.386C445.33 149.15 448.714 155.514 453.671 160.262C451.413 160.232 449.226 158.845 448.237 156.815C441.287 163.063 435.702 170.822 431.983 179.395C430.516 182.777 429.371 186.811 431.186 190.019C432.718 192.726 435.888 193.984 438.847 194.942C449.493 198.389 460.567 200.512 471.732 201.245C478.404 201.684 485.608 201.795 490.94 205.828C492.878 207.293 494.47 209.221 496.581 210.422C498.693 211.622 501.673 211.867 503.317 210.079C509.735 203.099 519.495 200.393 528.821 198.676C538.147 196.959 547.885 195.81 556.016 190.931C559.068 189.099 561.96 186.564 562.947 183.144C564.288 178.495 561.784 173.642 558.954 169.717C553.247 161.801 545.822 155.132 537.341 150.304C536.971 151.772 536.064 153.098 534.829 153.975C534.43 152.312 535.157 150.617 535.739 149.01C539.336 139.075 537.697 128.105 536.014 117.674C524.976 124.043 519.241 138.368 522.835 150.594C520.73 150.985 519.735 148.036 519.94 145.905C520.145 143.774 520.315 140.99 518.341 140.163C502.458 133.506 483.722 134.03 468.236 141.563Z" fill="#00160A"/>
<path fill-rule="evenodd" clip-rule="evenodd" d="M175.79 368.624C176.899 370.497 177.021 372.918 176.107 374.893C175.622 375.941 173.982 375.904 173.159 375.095C172.336 374.286 172.119 373.06 171.96 371.916C171.816 370.882 171.69 369.791 172.085 368.823C172.479 367.856 173.582 367.095 174.565 367.45C175.108 367.646 175.496 368.127 175.79 368.624Z" fill="#00160A"/>
<path fill-rule="evenodd" clip-rule="evenodd" d="M192.855 442.68C189.343 433.766 188.171 423.942 189.487 414.452C186.178 418.078 180.072 418.696 176.103 415.807C177.052 425.143 175.106 434.753 170.599 442.984C171.905 435.169 173.21 427.354 174.516 419.539C174.855 417.51 174.807 414.794 172.851 414.158C166.752 412.176 161.599 407.462 159.083 401.563C158.29 399.704 155.845 399.043 153.9 399.59C151.955 400.137 150.403 401.568 148.932 402.952C149.771 399.671 152.786 397.065 156.154 396.709C157.297 394.782 155.66 392.121 153.49 391.561C151.321 391.001 149.037 391.979 147.225 393.297C147.084 391.209 149.625 390.187 151.55 389.367C153.475 388.547 155.356 385.956 153.714 384.658C152.999 384.092 151.981 384.193 151.078 384.322C148.468 384.696 145.857 385.069 143.247 385.443C143.543 383.341 146.275 382.801 148.391 382.639C150.508 382.476 153.24 381.445 153.005 379.335C152.098 371.206 154.066 362.962 157.352 355.471C160.074 349.264 152.063 343.049 152.589 336.292C152.63 335.769 152.754 335.196 153.176 334.884C153.68 334.512 154.386 334.66 154.985 334.845C159.108 336.118 162.932 338.352 166.065 341.32C167.586 342.761 170.036 341.779 171.949 340.925C179.004 337.776 187.274 337.45 194.556 340.033C201.131 342.366 206.964 331.113 213.48 333.607C211.817 339.08 210.153 344.554 208.49 350.028C208.031 351.538 207.597 353.272 208.431 354.612C211.242 359.126 212.946 364.324 213.354 369.626C213.642 373.361 214.365 378.406 218.099 378.699C216.473 379.415 214.679 380.306 214.116 381.991C213.553 383.677 215.478 385.9 216.935 384.884C218.193 384.006 220.225 384.739 220.635 386.216C218.48 386.005 216.142 386.24 214.457 387.601C212.773 388.961 212.112 391.712 213.539 393.34C216.672 392.049 220.373 392.219 223.375 393.79C221.586 395.106 219.128 394.717 216.911 394.585C214.695 394.452 211.995 394.964 211.211 397.041C208.593 403.975 202.159 409.325 194.864 410.635C191.271 411.281 190.695 416.141 190.991 419.779C191.613 427.413 192.234 435.046 192.855 442.68ZM195.756 387.814C194.605 388.865 192.621 389.961 191.768 388.656C196.692 383.373 203.443 379.826 210.587 378.769C212.045 378.553 212.368 376.607 212.264 375.138C211.751 367.906 209.676 360.789 206.222 354.415C205.704 355.755 204.064 356.542 202.695 356.107C206.779 349.972 209.466 342.912 210.494 335.613C203.957 338.323 198.15 342.769 193.827 348.372C193.225 346.223 194.187 343.731 196.078 342.544C187.455 339.38 177.545 339.908 169.308 343.971C169.522 345.308 169.736 346.645 169.951 347.982C165.91 343.088 160.644 339.212 154.768 336.81C156.679 343.943 159.463 350.84 163.04 357.299C161.486 357.635 159.8 356.289 159.782 354.7C156.537 361.762 154.753 369.491 154.574 377.26C154.523 379.493 155.423 382.515 157.645 382.285C163.71 381.656 170.007 383.766 174.47 387.922C170.328 386.725 166.185 385.529 162.043 384.332C160.261 383.817 158.216 383.335 156.654 384.336C155.091 385.336 155.277 388.44 157.132 388.476C161.99 387.059 167.481 388.011 171.579 390.979C166.782 389.911 161.764 389.843 156.94 390.781C155.736 393.685 159.824 395.957 162.967 395.942C166.111 395.927 170.047 395.588 171.573 398.336C167.719 398.136 163.865 397.935 160.011 397.735C161.068 404.602 166.971 410.435 173.851 411.409C175.164 411.595 176.025 412.818 177.002 413.714C180.888 417.278 188.352 414.857 189.406 409.69C198.358 409.415 206.884 403.461 210.224 395.151C205.683 395.796 201.142 396.441 196.602 397.086C197.664 395.036 200.189 394.249 202.486 394.01C204.782 393.77 207.21 393.851 209.246 392.762C211.282 391.673 212.605 388.802 211.148 387.011C205.474 389.005 199.801 391 194.127 392.994C196.015 390.18 198.991 388.118 202.289 387.338C204.588 386.795 207.031 386.848 209.231 385.987C211.431 385.127 213.396 382.861 212.773 380.582C206.504 380.982 200.395 383.578 195.756 387.814Z" fill="#00160A"/>
<path fill-rule="evenodd" clip-rule="evenodd" d="M190.07 364.294C189.308 364.254 188.387 364.106 188.106 363.397C189.961 361.296 193.979 361.965 195.053 364.553C193.392 364.467 191.731 364.38 190.07 364.294Z" fill="#00160A"/>
<path fill-rule="evenodd" clip-rule="evenodd" d="M187.222 403.68C187.817 404.397 187.694 405.524 187.135 406.269C186.576 407.014 185.681 407.434 184.783 407.681C183.475 408.04 181.927 408.035 180.931 407.114C179.491 405.781 180.184 403.068 181.955 402.222C183.726 401.376 185.97 402.17 187.222 403.68ZM182.058 404.091C181.608 404.929 182.563 405.96 183.514 405.962C184.466 405.965 185.285 405.332 186.022 404.73C185.054 403.673 183.328 403.409 182.088 404.129L182.058 404.091Z" fill="#00160A"/>
<path fill-rule="evenodd" clip-rule="evenodd" d="M192.199 374.975C191.029 375.564 189.552 374.619 189.109 373.386C188.667 372.152 188.964 370.789 189.304 369.524C189.498 368.803 189.759 368.015 190.408 367.646C191.279 367.151 192.445 367.717 192.951 368.582C193.458 369.446 193.482 370.5 193.493 371.502C193.507 372.808 193.365 374.387 192.199 374.975Z" fill="#00160A"/>
<path fill-rule="evenodd" clip-rule="evenodd" d="M171.156 403.738C174.672 404.191 178.378 402.489 180.325 399.527C182.273 396.565 182.367 392.488 180.557 389.439C179.6 387.827 178.144 385.817 179.303 384.343C179.892 383.594 180.937 383.403 181.888 383.351C182.927 383.295 184.032 383.361 184.9 383.935C185.768 384.509 186.274 385.738 185.746 386.635C183.66 390.177 183.979 394.983 186.515 398.218C189.05 401.453 193.64 402.911 197.578 401.733C198.298 401.517 199.479 401.59 199.337 402.328C199.303 402.507 199.178 402.655 199.052 402.786C196.827 405.084 192.97 404.709 190.105 403.288C187.442 401.966 185.156 399.892 183.583 397.37C182.175 399.77 180.723 402.224 178.567 403.985C176.412 405.745 173.372 406.695 170.79 405.658C170.082 405.374 169.348 404.522 169.859 403.956C170.166 403.616 170.703 403.679 171.156 403.738Z" fill="#00160A"/>
<path fill-rule="evenodd" clip-rule="evenodd" d="M177.386 363.435C177.562 363.989 176.788 364.325 176.21 364.387C175.114 364.506 174.017 364.624 172.921 364.742C172.074 364.834 170.858 364.586 170.952 363.739C172.459 362.151 175.117 361.82 176.968 362.989C177.144 363.1 177.323 363.236 177.386 363.435Z" fill="#00160A"/>
<path fill-rule="evenodd" clip-rule="evenodd" d="M473.204 424.902C472.986 422.819 473.035 420.371 474.686 419.082C476.136 417.95 478.195 418.218 480.006 418.542C482.882 419.056 485.758 419.571 488.634 420.085C490.881 420.487 493.285 420.872 495.374 419.952C497.041 419.218 498.951 420.005 500.773 420.02C502.259 420.033 503.694 419.525 505.093 419.022C509.386 417.482 513.678 415.941 517.971 414.4C518.76 414.117 519.637 413.834 520.414 414.151C521.593 414.631 521.857 416.154 521.948 417.424C522.052 418.872 522.156 420.319 522.26 421.767C522.388 423.535 522.503 425.382 521.809 427.013C521.115 428.645 519.341 429.964 517.624 429.521C513.192 428.379 508.684 427.532 504.139 426.99C503.224 426.881 502.033 426.946 501.732 427.817C501.041 429.815 498.186 429.494 496.101 429.142C491.323 428.335 486.231 429.594 482.379 432.534C481.348 433.322 480.384 434.234 479.194 434.751C478.004 435.268 476.481 435.295 475.536 434.405C474.892 433.798 474.637 432.894 474.43 432.033C473.866 429.686 473.456 427.302 473.204 424.902ZM494.766 423.238C488.966 422.137 483.137 421.186 477.288 420.385C476.365 420.259 475.506 421.021 475.202 421.901C474.898 422.782 475.016 423.746 475.15 424.668C475.444 426.691 475.8 428.706 476.218 430.707C476.349 431.334 476.5 431.99 476.926 432.468C477.351 432.946 478.143 433.162 478.64 432.758C481.81 430.182 485.563 428.328 489.536 427.377C490.731 427.091 491.971 426.876 493.027 426.249C494.084 425.622 494.933 424.455 494.766 423.238ZM511.274 418.757C508.186 419.607 504.907 420.576 502.831 423.014C502.2 423.755 502.071 425.332 503.043 425.296C507.894 425.112 512.779 425.869 517.347 427.512C518.318 427.861 519.414 427.165 519.873 426.241C520.331 425.317 520.316 424.239 520.291 423.208C520.244 421.264 520.197 419.32 520.15 417.377C520.143 417.065 520.098 416.692 519.819 416.554C519.632 416.462 519.409 416.516 519.209 416.571C516.564 417.3 513.919 418.028 511.274 418.757ZM496.188 425.97C496.323 426.426 496.518 426.887 496.879 427.197C497.764 427.959 499.254 427.413 499.847 426.407C500.441 425.401 500.381 424.15 500.245 422.99C500.083 421.599 498.006 421.145 496.953 422.069C495.901 422.992 495.793 424.626 496.188 425.97Z" fill="#00160A"/>
<path fill-rule="evenodd" clip-rule="evenodd" d="M530.746 388.668C528.177 388.354 525.525 388.756 523.165 389.817C522.555 390.091 521.963 389.191 522.227 388.578C522.491 387.964 523.18 387.671 523.81 387.45C527.454 386.168 532.082 385.534 534.68 388.392C533.568 389.153 532.083 388.832 530.746 388.668Z" fill="#00160A"/>
<path fill-rule="evenodd" clip-rule="evenodd" d="M502.709 402.285C502.77 404.269 500.89 405.881 498.937 406.235C496.985 406.589 494.997 406.006 493.098 405.43C491.445 404.928 490.93 402.606 491.802 401.115C492.674 399.623 494.44 398.885 496.145 398.606C497.55 398.376 499.042 398.4 500.332 399C501.623 399.6 502.666 400.862 502.709 402.285ZM493.552 402.761C493.645 403.355 494.341 403.613 494.925 403.756C496.059 404.035 497.229 404.315 498.385 404.143C499.54 403.972 500.693 403.236 500.993 402.107C499.277 400.333 496.212 400.089 494.237 401.57C493.852 401.859 493.477 402.285 493.552 402.761Z" fill="#00160A"/>
<path fill-rule="evenodd" clip-rule="evenodd" d="M472.994 392.165C469.566 392.173 466.139 392.18 462.711 392.188C461.989 392.19 460.97 391.81 461.214 391.13C464.793 389.574 468.948 389.385 472.654 390.61C473.335 390.835 474.077 391.755 473.443 392.091C473.307 392.163 473.147 392.165 472.994 392.165Z" fill="#00160A"/>
<path fill-rule="evenodd" clip-rule="evenodd" d="M510.916 379.121C511.111 377.897 511.447 376.479 512.58 375.975C513.671 375.489 514.997 376.182 515.624 377.198C516.252 378.213 516.358 379.456 516.447 380.647C514.901 380.788 513.356 380.929 511.81 381.07C510.982 381.146 510.785 379.942 510.916 379.121Z" fill="#00160A"/>
<path fill-rule="evenodd" clip-rule="evenodd" d="M524.336 393.758C523.838 393.654 523.324 393.544 522.909 393.25C522.61 393.039 522.376 392.736 522.246 392.394C525.739 390.922 530.187 392.256 532.293 395.408C529.641 394.858 526.988 394.308 524.336 393.758Z" fill="#00160A"/>
<path fill-rule="evenodd" clip-rule="evenodd" d="M517.148 372.469C518.035 371.049 520.25 371.715 521.589 372.721C522.909 373.712 524.091 374.888 525.089 376.203C525.046 376.976 523.844 376.801 523.194 376.38C521.179 375.077 519.163 373.773 517.148 372.469Z" fill="#00160A"/>
<path fill-rule="evenodd" clip-rule="evenodd" d="M468.688 395.911C470.101 395.428 471.515 394.945 472.928 394.462C473.494 394.268 474.099 394.072 474.68 394.215C475.261 394.358 475.763 394.989 475.54 395.545C472.763 396.582 469.951 397.525 467.11 398.369C466.659 397.98 466.752 397.212 467.143 396.763C467.534 396.314 468.125 396.104 468.688 395.911Z" fill="#00160A"/>
<path fill-rule="evenodd" clip-rule="evenodd" d="M480.412 378.094C480.952 378.459 481.229 379.094 481.48 379.695C481.813 380.494 482.153 381.356 481.973 382.203C481.792 383.05 480.842 383.78 480.064 383.4C479.182 382.97 478.224 384.548 477.355 384.092C476.944 383.877 476.864 383.332 476.834 382.869C476.753 381.622 476.688 380.301 477.279 379.2C477.87 378.1 479.377 377.395 480.412 378.094Z" fill="#00160A"/>
<path fill-rule="evenodd" clip-rule="evenodd" d="M469.63 377.537C470.932 374.336 474.666 372.331 478.054 373.016C478.515 373.109 479.084 373.453 478.921 373.894C478.834 374.127 478.575 374.238 478.342 374.324C475.438 375.395 472.534 376.466 469.63 377.537Z" fill="#00160A"/>
<path fill-rule="evenodd" clip-rule="evenodd" d="M486.926 393.719C486.196 393.81 485.267 393.74 484.993 393.058C485.482 392.667 486.069 392.252 486.679 392.394C487.289 392.536 487.51 393.602 486.897 393.73L486.926 393.719Z" fill="#00160A"/>
<path fill-rule="evenodd" clip-rule="evenodd" d="M501.54 392.671C502.307 392.543 502.712 391.464 502.217 390.863C501.722 390.262 500.585 390.451 500.312 391.18C500.039 391.909 500.772 392.799 501.54 392.671Z" fill="#00160A"/>
<path fill-rule="evenodd" clip-rule="evenodd" d="M484.479 397.879C483.404 397.724 482.02 397.023 482.351 395.988C483.536 395.305 485.007 395.889 486.36 396.085C487.714 396.281 489.541 395.54 489.318 394.191C489.544 394.759 489.771 395.328 489.997 395.897C491.375 395.529 492.661 394.823 493.711 393.857C494.304 393.312 494.833 392.374 494.306 391.764C493.087 390.351 494.411 387.705 496.273 387.834C498.135 387.964 499.079 390.769 497.675 391.998C497.312 392.317 497.678 392.903 498.055 393.206C500.688 395.32 504.36 396.071 507.612 395.161C509.066 394.755 510.924 394.157 511.848 395.351C507.209 398.701 500.16 398.119 496.133 394.053C493.868 397.749 488.77 398.5 484.479 397.879Z" fill="#00160A"/>
<path fill-rule="evenodd" clip-rule="evenodd" d="M506.341 391.521C506.788 391.722 506.857 392.447 506.457 392.73C506.057 393.013 505.397 392.706 505.355 392.218C505.524 391.855 505.917 391.607 506.317 391.611L506.341 391.521Z" fill="#00160A"/>
<path fill-rule="evenodd" clip-rule="evenodd" d="M489.493 392.031C489.961 392.75 491.334 391.856 490.866 391.137C490.398 390.418 489.024 391.312 489.493 392.031Z" fill="#00160A"/>
<path fill-rule="evenodd" clip-rule="evenodd" d="M450.498 178.023C448.696 178.223 446.754 178.663 445.159 177.801C447.046 176.027 449.862 175.681 452.449 175.809C456.834 176.026 461.16 177.357 464.907 179.645C464.12 181.094 461.947 180.382 460.455 179.679C457.372 178.227 453.885 177.647 450.498 178.023Z" fill="#00160A"/>
<path fill-rule="evenodd" clip-rule="evenodd" d="M513.834 162.958C513.547 161.874 513.532 160.988 514.52 160.46C515.959 159.69 520.501 159.761 520.992 160.881C521.483 162.001 519.615 167.151 516.995 167.151C515.947 167.151 514.12 164.041 513.834 162.958Z" fill="#00160A"/>
<path fill-rule="evenodd" clip-rule="evenodd" d="M542.652 175.717C537.013 176.068 531.429 177.3 526.166 179.354C525.444 179.636 524.334 179.746 524.169 178.988C525.089 177.444 526.934 176.752 528.658 176.248C532.52 175.119 536.494 174.38 540.503 174.044C541.083 173.996 541.701 173.964 542.208 174.249C542.715 174.534 543.013 175.262 542.652 175.717Z" fill="#00160A"/>
<path fill-rule="evenodd" clip-rule="evenodd" d="M543.789 182.043C539.33 182.442 534.87 182.84 530.411 183.239C529.597 183.312 528.379 182.768 528.848 182.099C533.435 180.666 538.251 179.967 543.057 180.039C544.245 180.057 545.624 180.228 546.249 181.239C545.618 181.853 544.666 181.964 543.789 182.043Z" fill="#00160A"/>
<path fill-rule="evenodd" clip-rule="evenodd" d="M478.211 167.524C477.266 168.635 475.349 168.317 474.337 167.266C473.324 166.216 472.979 164.709 472.674 163.282C472.516 162.538 472.376 161.692 472.819 161.074C473.284 160.425 479.755 160.378 480.062 160.935C480.37 161.491 480.179 161.961 480.062 162.393C479.849 163.178 478.895 166.719 478.211 167.524Z" fill="#00160A"/>
<path fill-rule="evenodd" clip-rule="evenodd" d="M444.431 185.164C450.055 182.848 456.332 182.142 462.33 183.151C462.972 183.259 463.678 183.429 464.043 183.968C464.408 184.507 464.056 185.471 463.411 185.379C456.443 184.389 448.879 184.461 442.949 188.252C442.327 187.897 442.283 186.952 442.682 186.356C443.08 185.76 443.768 185.437 444.431 185.164Z" fill="#00160A"/>
<path fill-rule="evenodd" clip-rule="evenodd" d="M485.722 190.706C485.433 189.873 486.054 188.852 486.927 188.727C487.276 188.954 487.505 189.355 487.523 189.771C487.251 190.413 486.536 190.837 485.841 190.768L485.722 190.706Z" fill="#00160A"/>
<path fill-rule="evenodd" clip-rule="evenodd" d="M476.624 154.609C477.598 154.624 478.935 155.276 478.508 156.152C474.273 156.401 470.091 157.522 466.299 159.424C465.739 159.368 465.474 158.626 465.69 158.107C465.906 157.589 466.419 157.265 466.913 156.997C469.875 155.389 473.254 154.558 476.624 154.609Z" fill="#00160A"/>
<path fill-rule="evenodd" clip-rule="evenodd" d="M500.261 189.994C500.878 189.33 502.12 189.439 502.612 190.201C502.13 191.12 500.515 191.029 500.14 190.062L500.261 189.994Z" fill="#00160A"/>
<path fill-rule="evenodd" clip-rule="evenodd" d="M504.552 189.552C504.981 188.927 506.201 189.468 506.027 190.205C505.846 190.577 505.443 190.829 505.029 190.829C504.554 190.647 504.319 190.009 504.563 189.562L504.552 189.552Z" fill="#00160A"/>
<path fill-rule="evenodd" clip-rule="evenodd" d="M489.982 186.156C489.552 186.781 488.333 186.24 488.507 185.502C488.688 185.131 489.091 184.879 489.504 184.879C489.98 185.061 490.215 185.699 489.97 186.146L489.982 186.156Z" fill="#00160A"/>
<path fill-rule="evenodd" clip-rule="evenodd" d="M482.784 187.862C482.747 188.587 483.648 189.171 484.294 188.841C484.94 188.511 484.996 187.438 484.387 187.044C483.778 186.649 482.822 187.138 482.784 187.862Z" fill="#00160A"/>
<path fill-rule="evenodd" clip-rule="evenodd" d="M501.153 187.41C501.769 187.872 502.817 187.423 502.908 186.659C503 185.895 502.087 185.211 501.38 185.514C500.672 185.817 500.537 186.949 501.153 187.41Z" fill="#00160A"/>
<path fill-rule="evenodd" clip-rule="evenodd" d="M512.588 156.777C516.209 154.155 521.223 155.358 525.497 156.667C526.167 156.872 527.005 157.486 526.618 158.07C526.388 158.418 525.882 158.406 525.468 158.356C521.175 157.829 516.881 157.303 512.588 156.777Z" fill="#00160A"/>
<path fill-rule="evenodd" clip-rule="evenodd" d="M496.389 187.412C497.693 191.462 502.377 194.089 506.513 193.088C508.331 192.648 510.409 191.659 511.9 192.789C509.285 194.979 505.604 195.83 502.292 195.012C498.98 194.193 496.12 191.724 494.826 188.568C492.262 192.142 488.195 194.601 483.839 195.211C483.188 195.303 482.45 195.329 481.957 194.894C481.465 194.459 481.594 193.421 482.25 193.375C485.846 193.125 489.334 191.545 491.895 189.008C493.285 187.631 494.428 185.417 493.316 183.807C492.281 182.306 491.448 180.666 490.847 178.944C490.624 178.306 490.452 177.54 490.862 177.003C491.165 176.605 491.692 176.469 492.18 176.357C493.659 176.018 495.19 175.677 496.682 175.96C498.173 176.242 499.625 177.321 499.845 178.823C500.311 181.995 495.407 184.359 496.389 187.412Z" fill="#00160A"/>
<path fill-rule="evenodd" clip-rule="evenodd" d="M201.219 176.474C201.54 175.539 203.281 175.863 203.245 176.85C202.881 177.779 201.154 177.437 201.171 176.44L201.219 176.474Z" fill="#00160A"/>
<path fill-rule="evenodd" clip-rule="evenodd" d="M185.512 180.772C185.314 179.775 183.41 180.153 183.608 181.15C183.806 182.147 185.71 181.769 185.512 180.772Z" fill="#00160A"/>
<path fill-rule="evenodd" clip-rule="evenodd" d="M188.212 182.46C188.668 181.898 189.472 181.645 190.168 181.845C190.396 182.129 190.467 182.53 190.352 182.875C189.836 183.085 189.32 183.295 188.804 183.505C188.585 183.175 188.367 182.846 188.148 182.516L188.212 182.46Z" fill="#00160A"/>
<path fill-rule="evenodd" clip-rule="evenodd" d="M188.442 180.097C188.096 179.855 187.863 179.458 187.822 179.037C188.198 178.256 189.531 178.246 189.918 179.023C189.562 179.535 189.035 179.926 188.442 180.118L188.442 180.097Z" fill="#00160A"/>
<path fill-rule="evenodd" clip-rule="evenodd" d="M176.31 182.672C175.794 183.345 174.63 182.471 174.769 181.635C174.908 180.799 175.691 180.255 176.353 179.726C177.767 178.598 178.906 177.127 180.445 176.177C181.984 175.227 184.188 174.953 185.471 176.227C181.86 177.382 178.617 179.663 176.31 182.672Z" fill="#00160A"/>
<path fill-rule="evenodd" clip-rule="evenodd" d="M171.896 173.531C173.989 171.572 176.591 170.162 179.375 169.479C179.97 169.333 180.619 169.225 181.175 169.48C181.731 169.736 182.083 170.501 181.71 170.986C178.168 171.615 174.834 173.37 172.31 175.935C171.851 176.401 170.981 175.838 170.958 175.184C170.935 174.53 171.418 173.978 171.896 173.531Z" fill="#00160A"/>
<path fill-rule="evenodd" clip-rule="evenodd" d="M198.396 177.111C198.332 176.631 199.155 176.893 199.4 177.31C199.066 177.809 198.731 178.308 198.397 178.807C197.702 178.583 197.67 177.392 198.352 177.13L198.396 177.111Z" fill="#00160A"/>
<path fill-rule="evenodd" clip-rule="evenodd" d="M219.098 174.499C216.069 173.567 213.041 172.634 210.012 171.701C209.304 171.483 208.528 171.213 208.169 170.565C212.349 169.618 216.947 170.738 220.224 173.501C220.362 173.617 220.505 173.747 220.55 173.922C220.71 174.542 219.709 174.687 219.098 174.499Z" fill="#00160A"/>
<path fill-rule="evenodd" clip-rule="evenodd" d="M199.039 179.945C199.376 179.541 200.092 179.552 200.417 179.966C200.741 180.38 200.58 181.079 200.107 181.309C199.403 181.239 198.798 180.605 198.762 179.899L199.039 179.945Z" fill="#00160A"/>
<path fill-rule="evenodd" clip-rule="evenodd" d="M216.959 181.066C213.818 179.963 210.677 178.861 207.536 177.758C207.279 177.668 207.007 177.567 206.842 177.351C206.481 176.875 206.899 176.135 207.469 175.957C208.039 175.78 208.651 175.979 209.215 176.176C210.907 176.77 212.6 177.363 214.293 177.957C215.742 178.465 217.526 179.639 216.959 181.066Z" fill="#00160A"/>
<path fill-rule="evenodd" clip-rule="evenodd" d="M628.34 44.6667C639.744 49.2854 647.503 60.4038 651.101 72.1702C654.7 83.9367 654.735 96.4547 654.74 108.759C654.777 199.923 654.814 291.088 654.851 382.252C654.851 395.589 654.748 409.45 648.962 421.467C643.658 432.483 633.618 441.119 621.932 444.717C613.451 447.327 604.422 447.346 595.549 447.346C427.536 447.317 259.524 447.288 91.5112 447.258C83.1408 447.257 74.1907 447.084 67.3004 442.331C56.2667 434.721 55.1757 419.126 55.1714 405.722C55.1385 301.561 55.1055 197.401 55.0725 93.2404C55.0725 85.4985 55.0999 77.5669 57.775 70.3019C62.3925 57.7621 74.3874 49.094 87.1388 45.0981C99.8902 41.1022 113.498 41.0812 126.861 41.0944C157.099 41.1287 187.336 41.1617 217.574 41.1947C346.649 41.3356 475.725 41.4764 604.8 41.6172C612.764 41.6259 620.958 41.6773 628.34 44.6667ZM347.242 445.158C347.17 378.877 347.098 312.596 347.026 246.316C251.694 246.354 156.362 246.393 61.0291 246.432C60.2086 246.432 59.2902 246.473 58.7244 247.067C58.1932 247.625 58.1615 248.477 58.1609 249.247C58.1182 304.866 58.0755 360.485 58.0326 416.104C58.0326 419.001 58.0326 421.925 58.6442 424.757C60.6727 434.126 69.2146 440.975 78.37 443.817C87.5255 446.658 97.3281 446.227 106.908 445.869C143.999 444.484 181.127 444.607 218.244 444.73C261.243 444.872 304.242 445.015 347.242 445.158ZM349.69 246.606C349.745 312.711 349.801 378.817 349.856 444.922C433.417 444.844 516.978 444.766 600.539 444.688C606.822 444.682 613.174 444.668 619.285 443.207C633.665 439.769 645.558 427.981 649.792 413.815C652.294 405.447 652.294 396.565 652.274 387.831C652.167 340.639 652.059 293.448 651.952 246.257C551.198 246.374 450.444 246.49 349.69 246.606ZM349.659 44.5775C349.746 110.855 349.834 177.133 349.921 243.411C449.756 243.418 549.591 243.424 649.426 243.431C650.257 243.431 651.212 243.374 651.72 242.715C652.083 242.243 652.099 241.598 652.099 241.002C652.114 192.692 652.128 144.381 652.143 96.071C652.143 88.9394 652.136 81.7167 650.347 74.8131C645.459 55.9478 626.045 41.9794 606.604 43.3408C592.188 44.3503 577.724 44.3643 563.273 44.3778C492.068 44.4444 420.864 44.511 349.659 44.5775ZM347.236 243.155C347.157 176.885 347.078 110.615 346.999 44.3453C264.685 44.316 182.371 44.2866 100.056 44.2572C80.6435 44.2503 62.3304 59.5301 58.8598 78.6303C57.9549 83.6104 57.9604 88.7052 57.9672 93.7668C58.0508 143.575 58.1329 193.384 58.215 243.192C154.555 243.592 250.896 243.58 347.236 243.155Z" fill="#00160A"/>
<path fill-rule="evenodd" clip-rule="evenodd" d="M196.071 177.116C195.485 178.649 196.23 180.423 197.407 181.565C199.123 183.23 201.768 183.869 204.055 183.17C205.701 182.668 207.695 181.611 208.914 182.827C205.284 186.483 198.393 185.968 195.348 181.813C194.396 184.293 192.218 186.269 189.656 186.974C187.094 187.68 184.212 187.098 182.124 185.454C183.658 184.182 185.933 185.174 187.925 185.186C190.032 185.198 192.093 183.908 193.003 182.008C193.913 180.108 193.626 177.694 192.297 176.06C190.94 174.393 189.89 172.478 189.215 170.438C189.058 169.965 188.921 169.451 189.073 168.977C189.383 168.006 190.629 167.776 191.647 167.725C193.733 167.62 195.821 167.564 197.91 167.555C198.913 167.551 200.13 167.687 200.551 168.598C200.829 169.198 200.628 169.903 200.385 170.517C199.75 172.118 198.837 173.609 197.699 174.902C197.089 175.593 196.4 176.255 196.071 177.116Z" fill="#00160A"/>
<path fill-rule="evenodd" clip-rule="evenodd" d="M213.928 136.336C210.841 135.762 207.589 136.107 204.692 137.318C204.289 137.486 203.824 137.67 203.436 137.471C202.962 137.229 202.912 136.519 203.207 136.075C203.502 135.632 204.02 135.398 204.517 135.207C209.641 133.242 215.62 133.644 220.435 136.276C218.6 137.554 216.126 136.745 213.928 136.336Z" fill="#00160A"/>
<path fill-rule="evenodd" clip-rule="evenodd" d="M212.416 151.94C212.156 152.449 211.842 152.974 211.332 153.233C210.575 153.618 209.593 153.258 209.077 152.584C208.561 151.91 208.436 151.008 208.499 150.162C208.627 148.432 210.124 146.492 211.756 147.077C213.506 147.706 213.262 150.284 212.416 151.94Z" fill="#00160A"/>
<path fill-rule="evenodd" clip-rule="evenodd" d="M182.45 148.983C182.634 150.453 181.984 152.099 180.64 152.722C179.296 153.345 177.383 152.501 177.239 151.027C177.189 150.514 177.339 150.004 177.496 149.513C177.954 148.081 178.893 146.397 180.392 146.525C181.544 146.624 182.306 147.835 182.45 148.983Z" fill="#00160A"/>
<path fill-rule="evenodd" clip-rule="evenodd" d="M169.358 138.449C169.118 137.681 170.049 137.094 170.817 136.854C175.343 135.44 180.235 135.215 184.871 136.21C185.553 136.356 186.304 136.583 186.644 137.191C186.985 137.8 186.464 138.796 185.801 138.579C181.247 137.082 176.191 137.166 171.689 138.813C170.856 139.117 169.622 139.295 169.358 138.449Z" fill="#00160A"/>
<path fill-rule="evenodd" clip-rule="evenodd" d="M236.178 99.7628C235.733 106.823 235.288 113.904 235.705 120.965C236.03 126.462 236.877 131.928 236.954 137.433C237.178 153.346 230.939 168.759 222.453 182.222C242.827 195.925 258.187 216.918 265.082 240.484C262.144 238.652 260.881 235.1 259.648 231.866C252.838 214.003 240.854 198.146 225.527 186.72C223.329 185.082 219.593 183.843 218.377 186.3C215.631 191.852 211.572 196.749 206.626 200.478C204.832 201.831 202.824 203.167 201.422 204.866C201.434 205.004 201.44 205.144 201.44 205.286C201.44 208.157 199.112 210.486 196.24 210.486C194.288 210.486 192.587 209.41 191.697 207.819C178.752 202.127 168.218 191.078 163.263 177.819C153.798 184.383 148.34 195.554 146.248 206.881C144.155 218.208 145.045 229.848 145.941 241.332C144.996 241.972 144.112 240.425 144.004 239.288C142.912 227.79 142.299 216.083 144.684 204.783C147.07 193.482 152.771 182.499 162.189 175.814C153.448 156.783 156.848 133.437 146.184 115.413C145.551 114.343 145.018 112.674 146.127 112.11C146.538 111.901 147.029 111.966 147.484 112.043C154.919 113.305 162.004 116.575 167.787 121.414C169.279 122.663 171.512 121.752 173.255 120.888C186.653 114.253 202.653 113.064 216.884 117.647C220.46 110.777 225.727 104.795 232.089 100.378C233.317 99.5258 235.074 98.7563 236.178 99.7628ZM190.218 192.622C194.804 193.024 199.476 193.421 203.97 192.424C214.249 190.142 221.623 181.047 226.333 171.629C231.725 160.846 234.747 148.884 235.121 136.833C231.796 139.507 228.472 142.181 225.147 144.855C223.178 146.438 221.027 148.388 221.065 150.915C221.119 154.508 218.893 158.034 215.626 159.532C212.36 161.029 208.235 160.413 205.548 158.027C202.516 155.335 200.794 150.46 196.754 150.105C191.99 149.686 189.721 155.795 185.887 158.654C181.003 162.298 173.119 159.562 170.68 153.977C170.216 152.915 170.382 151.029 169.32 150.382C165.931 148.32 162.189 148.244 157.774 148.391C158.561 158.012 160.89 167.505 164.645 176.398C166.309 180.338 168.337 184.273 171.603 187.034C176.634 191.288 183.655 192.047 190.218 192.622ZM217.821 119.828C216.339 122.656 213.852 126.196 210.871 125.054C212.786 123.413 214.44 121.469 215.754 119.316C200.917 115.087 184.481 116.773 170.812 123.928C171.988 125.352 173.435 126.551 175.052 127.443C173.341 129.073 170.701 127.076 169.082 125.354C163.572 119.496 156.039 115.576 148.079 114.426C151.346 119.667 154.365 130.051 157.139 145.577C161.633 146.593 164.654 147.117 166.201 147.15C167.982 147.188 170.151 147.003 170.93 145.401C172.986 141.169 178.136 138.7 182.724 139.748C187.311 140.795 190.879 145.255 190.895 149.96C193.87 148.011 197.851 147.702 201.092 149.168C201.43 145.163 204.463 141.525 208.342 140.474C212.22 139.422 216.676 141.029 218.991 144.314C219.997 145.743 222.225 144.693 223.561 143.565C226.328 141.228 229.096 138.89 231.863 136.553C233.422 135.236 235.138 133.527 234.811 131.512C233.192 121.534 232.99 111.327 234.212 101.293C227.363 106.032 221.686 112.451 217.821 119.828ZM210.748 191.67C204.087 196.193 195.296 195.405 187.303 194.437C182.937 193.908 178.419 193.328 174.665 191.036C173.893 190.565 172.882 190.026 172.169 190.582C176.645 196.167 182.439 200.687 188.945 203.668C189.912 204.111 191.338 204.372 191.796 203.413C192.85 201.206 196.048 200.388 198.032 201.818C199.646 202.982 201.877 201.865 203.472 200.675C207.053 198.004 210.321 194.914 213.189 191.489C212.77 190.657 211.518 191.146 210.748 191.67ZM172.978 154.179C174.986 157.569 179.567 159.166 183.246 157.76C186.926 156.354 189.275 152.109 188.511 148.244C187.747 144.38 183.96 141.347 180.022 141.447C176.084 141.546 172.455 144.766 171.888 148.664C171.612 150.555 172.004 152.536 172.978 154.179ZM203.567 148.32C203.094 151.119 204.191 154.07 206.177 156.099C207.636 157.589 209.647 158.642 211.731 158.565C215.457 158.427 218.167 154.864 219.317 151.317C219.616 150.392 219.852 149.409 219.67 148.454C219.433 147.214 218.533 146.212 217.592 145.37C215.232 143.258 212.048 141.656 208.961 142.366C206.194 143.002 204.04 145.52 203.567 148.32Z" fill="#00160A"/>
<defs>
<linearGradient id="paint0_linear" x1="350.159" y1="0" x2="350.159" y2="507.708" gradientUnits="userSpaceOnUse">
<stop stop-color="#330867"/>
<stop offset="1" stop-color="#2575FC"/>
</linearGradient>
</defs>
</svg>
