<svg width="100" height="100" viewBox="0 0 100 100" fill="none" xmlns="http://www.w3.org/2000/svg">
<path d="M0 6.89656C0 3.08769 3.08769 0 6.89655 0H50C77.6142 0 100 22.3858 100 50C100 77.6142 77.6142 100 50 100C22.3858 100 0 77.6142 0 50V6.89656Z" fill="white"/>
<g clip-path="url(#clip0)">
<g filter="url(#filter0_d)">
<rect x="31.5037" y="50.4254" width="9.43841" height="31.7131" rx="4.71921" fill="url(#paint0_linear)"/>
</g>
<g filter="url(#filter1_d)">
<path fill-rule="evenodd" clip-rule="evenodd" d="M52.8346 62.5065C64.4068 62.5065 73.7879 53.1254 73.7879 41.5533C73.7879 29.9811 64.4068 20.6 52.8346 20.6C41.2625 20.6 31.8813 29.9811 31.8813 41.5533C31.8813 53.1254 41.2625 62.5065 52.8346 62.5065ZM50.0031 54.2007C56.2583 54.2007 61.3292 49.1299 61.3292 42.8746C61.3292 36.6194 56.2583 31.5485 50.0031 31.5485C43.7479 31.5485 38.677 36.6194 38.677 42.8746C38.677 49.1299 43.7479 54.2007 50.0031 54.2007Z" fill="url(#paint1_linear)"/>
</g>
<g filter="url(#filter2_d)">
<rect x="27.3508" y="33.0587" width="18.8768" height="23.4073" rx="9.43841" fill="url(#paint2_linear)"/>
</g>
</g>
<defs>
<filter id="filter0_d" x="27.5037" y="50.4254" width="17.4384" height="39.7131" filterUnits="userSpaceOnUse" color-interpolation-filters="sRGB">
<feFlood flood-opacity="0" result="BackgroundImageFix"/>
<feColorMatrix in="SourceAlpha" type="matrix" values="0 0 0 0 0 0 0 0 0 0 0 0 0 0 0 0 0 0 127 0"/>
<feOffset dy="4"/>
<feGaussianBlur stdDeviation="2"/>
<feColorMatrix type="matrix" values="0 0 0 0 0 0 0 0 0 0 0 0 0 0 0 0 0 0 0.25 0"/>
<feBlend mode="normal" in2="BackgroundImageFix" result="effect1_dropShadow"/>
<feBlend mode="normal" in="SourceGraphic" in2="effect1_dropShadow" result="shape"/>
</filter>
<filter id="filter1_d" x="27.8813" y="20.6" width="49.9066" height="49.9066" filterUnits="userSpaceOnUse" color-interpolation-filters="sRGB">
<feFlood flood-opacity="0" result="BackgroundImageFix"/>
<feColorMatrix in="SourceAlpha" type="matrix" values="0 0 0 0 0 0 0 0 0 0 0 0 0 0 0 0 0 0 127 0"/>
<feOffset dy="4"/>
<feGaussianBlur stdDeviation="2"/>
<feColorMatrix type="matrix" values="0 0 0 0 0 0 0 0 0 0 0 0 0 0 0 0 0 0 0.25 0"/>
<feBlend mode="normal" in2="BackgroundImageFix" result="effect1_dropShadow"/>
<feBlend mode="normal" in="SourceGraphic" in2="effect1_dropShadow" result="shape"/>
</filter>
<filter id="filter2_d" x="23.3508" y="33.0587" width="26.8768" height="31.4073" filterUnits="userSpaceOnUse" color-interpolation-filters="sRGB">
<feFlood flood-opacity="0" result="BackgroundImageFix"/>
<feColorMatrix in="SourceAlpha" type="matrix" values="0 0 0 0 0 0 0 0 0 0 0 0 0 0 0 0 0 0 127 0"/>
<feOffset dy="4"/>
<feGaussianBlur stdDeviation="2"/>
<feColorMatrix type="matrix" values="0 0 0 0 0 0 0 0 0 0 0 0 0 0 0 0 0 0 0.25 0"/>
<feBlend mode="normal" in2="BackgroundImageFix" result="effect1_dropShadow"/>
<feBlend mode="normal" in="SourceGraphic" in2="effect1_dropShadow" result="shape"/>
</filter>
<linearGradient id="paint0_linear" x1="73.0051" y1="41.1129" x2="31.3385" y2="82.1385" gradientUnits="userSpaceOnUse">
<stop stop-color="#330867"/>
<stop offset="0.546875" stop-color="#2B44B8"/>
<stop offset="1" stop-color="#2575FC"/>
</linearGradient>
<linearGradient id="paint1_linear" x1="52.8346" y1="20.6" x2="52.8346" y2="62.5065" gradientUnits="userSpaceOnUse">
<stop stop-color="#330867"/>
<stop offset="1" stop-color="#2575FC"/>
</linearGradient>
<linearGradient id="paint2_linear" x1="36.7892" y1="33.0587" x2="36.7892" y2="56.466" gradientUnits="userSpaceOnUse">
<stop stop-color="#330867"/>
<stop offset="1" stop-color="#2575FC"/>
</linearGradient>
<clipPath id="clip0">
<rect width="61.5385" height="61.5385" fill="white" transform="translate(19.8 20.6)"/>
</clipPath>
</defs>
</svg>
