<svg width="24" height="24" viewBox="0 0 24 24" fill="none" xmlns="http://www.w3.org/2000/svg">
<path d="M8 24C10.208 24 12 22.208 12 20V16H8C5.792 16 4 17.792 4 20C4 22.208 5.792 24 8 24Z" fill="#0ACF83"/>
<path d="M8.419 16H8C5.792 16 4 17.792 4 20C4 22.208 5.792 24 8 24C8.142 24 8.281 23.993 8.419 23.978V16Z" fill="#09B472"/>
<path d="M20 12C20 14.208 18.208 16 16 16C13.792 16 12 14.208 12 12C12 9.792 13.792 8 16 8C18.208 8 20 9.792 20 12Z" fill="#1ABCFE"/>
<path d="M16 8C13.792 8 12 9.792 12 12C12 14.208 13.792 16 16 16V8Z" fill="#17A4DD"/>
<path d="M4 12C4 9.792 5.792 8 8 8H12V16H8C5.792 16 4 14.208 4 12Z" fill="#A259FF"/>
<path d="M8.419 8H8C5.792 8 4 9.792 4 12C4 14.208 5.792 16 8 16H8.419V8Z" fill="#8D4DDE"/>
<path d="M12 0H16C18.208 0 20 1.792 20 4C20 6.208 18.208 8 16 8H12V0Z" fill="#FF7262"/>
<path d="M16 0H12V8H16V0Z" fill="#DE6355"/>
<path d="M4 4C4 1.792 5.792 0 8 0H12V8H8C5.792 8 4 6.208 4 4Z" fill="#F24E1E"/>
<path d="M8.419 0H8C5.792 0 4 1.792 4 4C4 6.208 5.792 8 8 8H8.419V0Z" fill="#D3441A"/>
</svg>
