<svg width="24" height="24" viewBox="0 0 24 24" fill="none" xmlns="http://www.w3.org/2000/svg">
<g clip-path="url(#clip0)">
<path d="M14.7141 8.669L12.3141 10.904L10.0861 6.408L11.2371 3.823C11.5281 3.307 12.0041 3.301 12.2951 3.823L14.7141 8.669Z" fill="#FFA000"/>
<path d="M12.314 10.903L3.33496 19.254L10.086 6.408L12.314 10.903Z" fill="#F57F17"/>
<path d="M17.3461 5.251C17.7761 4.841 18.2191 4.98 18.3311 5.561L20.6651 19.141L12.9231 23.789C12.6511 23.941 11.9311 24 11.9311 24C11.9311 24 11.2761 23.92 11.0251 23.782L3.33606 19.254L17.3461 5.251Z" fill="#FFCA28"/>
<path d="M10.0861 6.408L3.33606 19.254L6.34406 0.477C6.45706 -0.105 6.78706 -0.164 7.08406 0.351L10.0861 6.408Z" fill="#FFA000"/>
</g>
<defs>
<clipPath id="clip0">
<rect width="24" height="24" fill="white"/>
</clipPath>
</defs>
</svg>
