<svg width="24" height="24" viewBox="0 0 24 24" fill="none" xmlns="http://www.w3.org/2000/svg">
<path d="M23.5478 10.9309L13.069 0.45261C12.4659 -0.15087 11.4871 -0.15087 10.8833 0.45261L8.70729 2.62859L11.4676 5.38892C12.1091 5.17217 12.8446 5.31757 13.356 5.8289C13.8697 6.3435 14.0141 7.08536 13.7921 7.72887L16.4523 10.3892C17.0959 10.1674 17.8385 10.3109 18.3526 10.8258C19.071 11.5439 19.071 12.7078 18.3526 13.4264C17.634 14.1451 16.47 14.1451 15.751 13.4264C15.2107 12.8855 15.0772 12.0919 15.3507 11.4262L12.8699 8.9453L12.8696 15.4739C13.0494 15.5628 13.2137 15.6803 13.356 15.8217C14.0744 16.5398 14.0744 17.7039 13.356 18.423C12.6374 19.1414 11.4729 19.1414 10.7553 18.423C10.0369 17.7039 10.0369 16.5399 10.7553 15.8218C10.9275 15.6495 11.1321 15.5131 11.3573 15.4204V8.83101C11.1317 8.73894 10.927 8.60245 10.7553 8.42966C10.211 7.88609 10.0801 7.08742 10.359 6.41906L7.63795 3.69773L0.452821 10.8824C-0.15094 11.4864 -0.15094 12.4653 0.452821 13.0689L10.9318 23.5473C11.5351 24.1509 12.5137 24.1509 13.1177 23.5473L23.5477 13.1175C24.1513 12.5138 24.1514 11.5343 23.5478 10.9309Z" fill="#DE4C36"/>
</svg>
