<svg width="39" height="24" viewBox="0 0 39 24" fill="none" xmlns="http://www.w3.org/2000/svg">
<path d="M2.7696 24H35.632C37.16 24 38.4016 22.7392 38.4016 21.1888V2.8112C38.4 1.2608 37.1584 0 35.6304 0H2.7696C1.2416 0 0 1.2608 0 2.8112V21.1872C0 22.7392 1.2416 24 2.7696 24ZM26.5824 12V5.624H30.2752V12H33.9664L28.4272 18.5632L22.8896 12H26.5824ZM5.5376 5.624H9.2304L12.9232 10.312L16.616 5.624H20.3088V18.3744H16.616V11.0624L12.9232 15.7504L9.2304 11.0624V18.3744H5.5376V5.624Z" fill="black"/>
</svg>
