<svg width="11" height="24" viewBox="0 0 11 24" fill="none" xmlns="http://www.w3.org/2000/svg">
<path d="M5.91937 24L5.28037 23.781C5.28037 23.781 5.35837 20.524 4.18937 20.291C3.40937 19.387 4.31437 -18.047 7.11937 20.166C7.11937 20.166 6.15337 20.65 5.98137 21.476C5.79537 22.286 5.91937 24 5.91937 24Z" fill="#4D9446"/>
<path d="M5.91937 24L5.28037 23.781C5.28037 23.781 5.35837 20.524 4.18937 20.291C3.40937 19.387 4.31437 -18.047 7.11937 20.166C7.11937 20.166 6.15337 20.65 5.98137 21.476C5.79537 22.286 5.91937 24 5.91937 24Z" fill="#4D9446"/>
<path d="M6.26237 20.852C6.26237 20.852 11.8574 17.174 10.5474 9.522C9.28537 3.96 6.30937 2.135 5.98137 1.434C5.62237 0.936 5.28037 0.063 5.28037 0.063L5.51437 15.537C5.51537 15.552 5.03137 20.275 6.26237 20.852Z" fill="#4D9446"/>
<path d="M6.26237 20.852C6.26237 20.852 11.8574 17.174 10.5474 9.522C9.28537 3.96 6.30937 2.135 5.98137 1.434C5.62237 0.936 5.28037 0.063 5.28037 0.063L5.51437 15.537C5.51537 15.552 5.03137 20.275 6.26237 20.852Z" fill="#4D9446"/>
<path d="M4.95337 21.055C4.95337 21.055 -0.29863 17.47 0.0133702 11.159C0.30937 4.848 4.01937 1.746 4.73537 1.185C5.20237 0.685 5.21837 0.499 5.24937 0C5.57737 0.701 5.51537 10.488 5.56137 11.641C5.70137 16.083 5.31137 20.213 4.95337 21.055Z" fill="#4D9446"/>
<path d="M4.95337 21.055C4.95337 21.055 -0.29863 17.47 0.0133702 11.159C0.30937 4.848 4.01937 1.746 4.73537 1.185C5.20237 0.685 5.21837 0.499 5.24937 0C5.57737 0.701 5.51537 10.488 5.56137 11.641C5.70137 16.083 5.31137 20.213 4.95337 21.055Z" fill="#4D9446"/>
<path d="M5.37337 18.545C5.25437 19.801 5.10137 20.708 4.95337 21.055C4.95337 21.055 4.92937 21.038 4.88437 21.005C5.25237 21.867 5.28137 23.239 5.28137 23.656C5.28137 23.735 5.28037 23.781 5.28037 23.781L5.37337 23.813V18.545Z" fill="#4D9446"/>
<path d="M5.28037 0.063V0.102C5.31637 0.255 5.34737 0.525 5.37337 0.884V0.286C5.31537 0.15 5.28037 0.063 5.28037 0.063Z" fill="#4D9446"/>
<path d="M5.24937 0C5.21837 0.499 5.20237 0.685 4.73537 1.185C4.01837 1.746 0.30837 4.846 0.0133699 11.158C0.00436986 11.343 -0.000630154 11.525 0.000369846 11.706C0.00536985 17.677 4.95437 21.055 4.95437 21.055C5.10237 20.708 5.25537 19.802 5.37437 18.546V0.884C5.34837 0.525 5.31737 0.255 5.28237 0.103C5.27137 0.058 5.26037 0.024 5.24937 0Z" fill="#4D9446"/>
</svg>
