<svg width="22" height="24" viewBox="0 0 22 24" fill="none" xmlns="http://www.w3.org/2000/svg">
<path d="M20.3795 5.31787L11.618 0.235794C11.0661 -0.0785981 10.343 -0.0785981 9.78665 0.235794L0.956673 5.31787C0.387234 5.64556 0 6.26145 0 6.9202V17.0709C0 17.7296 0.395372 18.3457 0.96501 18.6752L3.29298 20.0026C4.40983 20.5528 4.71926 20.5528 5.22737 20.5528C6.8815 20.5528 7.74052 19.5527 7.74052 17.8082V7.78696C7.74072 7.64545 7.82904 7.43486 7.68991 7.43486H6.57405C6.43274 7.43486 6.15288 7.64545 6.15288 7.78677V17.808C6.15288 18.5813 5.43518 19.3508 4.12799 18.6972L1.72201 17.3053C1.63825 17.2596 1.58784 17.1677 1.58784 17.0709V6.9202C1.58784 6.82454 1.67974 6.72847 1.76469 6.67945L10.5728 1.6061C10.6552 1.55946 10.7717 1.55946 10.8537 1.6061L19.5795 6.67826C19.663 6.72847 19.6497 6.82156 19.6497 6.9202V17.0709C19.6497 17.1677 19.668 17.262 19.5856 17.3086L10.8261 22.385C10.7511 22.43 10.6534 22.43 10.571 22.385L8.32485 21.0454C8.25716 21.0061 8.17559 20.992 8.11049 21.0284C7.48627 21.3822 7.37036 21.4293 6.78484 21.6323C6.64054 21.6825 6.42777 21.7697 6.86582 22.0152L9.80293 23.7527C10.084 23.9154 10.4037 24 10.7253 24C11.0512 24 11.3701 23.9154 11.6514 23.7527L20.3797 18.6752C20.9496 18.3433 21.2376 17.7296 21.2376 17.0709V6.9202C21.2374 6.26145 20.9494 5.64715 20.3795 5.31787ZM13.4425 15.4624C11.1149 15.4624 10.6024 14.8203 10.4315 13.663C10.4113 13.5383 10.3057 13.3893 10.1786 13.3893H9.04136C8.90064 13.3893 8.7873 13.56 8.7873 13.7001C8.7873 15.1819 9.59313 16.9774 13.4425 16.9774C16.2287 16.9774 17.8265 15.8947 17.8265 13.9785C17.8265 12.0787 16.5429 11.5801 13.8406 11.2225C11.1091 10.8614 10.8316 10.679 10.8316 10.0391C10.8316 9.51156 11.0666 8.80795 13.0892 8.80795C14.8961 8.80795 15.5622 9.19578 15.8363 10.4138C15.8599 10.5284 15.9645 10.6105 16.0826 10.6105H17.2247C17.2949 10.6105 17.3618 10.5822 17.4111 10.5319C17.4589 10.478 17.4839 10.4103 17.4777 10.3376C17.3005 8.2399 15.9072 7.26238 13.089 7.26238C10.5818 7.26238 9.08641 8.32107 9.08641 10.0957C9.08641 12.0205 10.5744 12.5525 12.981 12.7904C15.8599 13.0727 16.0838 13.4935 16.0838 14.0597C16.0838 15.0434 15.2943 15.4624 13.4425 15.4624Z" fill="#83CD29"/>
</svg>
