<svg width="68" height="68" viewBox="0 0 68 68" fill="none" xmlns="http://www.w3.org/2000/svg">
	<g filter="url(#filter0_d)">
		<path d="M10 11.3103C10 9.48209 11.4821 8 13.3103 8H34C47.2548 8 58 18.7452 58 32V32C58 45.2548 47.2548 56 34 56V56C20.7452 56 10 45.2548 10 32V11.3103Z" fill="white" />
		<g clip-path="url(#clip0)">
			<g filter="url(#filter1_d)">
				<rect x="25.1216" y="32.2039" width="4.53044" height="15.2223" rx="2.26522" fill="url(#paint0_linear)" />
			</g>
			<g filter="url(#filter2_d)">
				<path fill-rule="evenodd" clip-rule="evenodd" d="M35.3604 38.0028C40.9151 38.0028 45.418 33.4999 45.418 27.9453C45.418 22.3906 40.9151 17.8877 35.3604 17.8877C29.8058 17.8877 25.3029 22.3906 25.3029 27.9453C25.3029 33.4999 29.8058 38.0028 35.3604 38.0028ZM34.0013 34.0161C37.0038 34.0161 39.4378 31.582 39.4378 28.5795C39.4378 25.577 37.0038 23.143 34.0013 23.143C30.9988 23.143 28.5648 25.577 28.5648 28.5795C28.5648 31.582 30.9988 34.0161 34.0013 34.0161Z" fill="url(#paint1_linear)" />
			</g>
			<g filter="url(#filter3_d)">
				<rect x="23.1282" y="23.8679" width="9.06088" height="11.2355" rx="4.53044" fill="url(#paint2_linear)" />
			</g>
		</g>
	</g>
	<defs>
		<filter id="filter0_d" x="0" y="0" width="68" height="68" filterUnits="userSpaceOnUse" color-interpolation-filters="sRGB">
			<feFlood flood-opacity="0" result="BackgroundImageFix" />
			<feColorMatrix in="SourceAlpha" type="matrix" values="0 0 0 0 0 0 0 0 0 0 0 0 0 0 0 0 0 0 127 0" result="hardAlpha" />
			<feOffset dy="2" />
			<feGaussianBlur stdDeviation="5" />
			<feColorMatrix type="matrix" values="0 0 0 0 0 0 0 0 0 0 0 0 0 0 0 0 0 0 0.25 0" />
			<feBlend mode="normal" in2="BackgroundImageFix" result="effect1_dropShadow" />
			<feBlend mode="normal" in="SourceGraphic" in2="effect1_dropShadow" result="shape" />
		</filter>
		<filter id="filter1_d" x="21.1216" y="32.2039" width="12.5304" height="23.2223" filterUnits="userSpaceOnUse" color-interpolation-filters="sRGB">
			<feFlood flood-opacity="0" result="BackgroundImageFix" />
			<feColorMatrix in="SourceAlpha" type="matrix" values="0 0 0 0 0 0 0 0 0 0 0 0 0 0 0 0 0 0 127 0" result="hardAlpha" />
			<feOffset dy="4" />
			<feGaussianBlur stdDeviation="2" />
			<feColorMatrix type="matrix" values="0 0 0 0 0 0 0 0 0 0 0 0 0 0 0 0 0 0 0.25 0" />
			<feBlend mode="normal" in2="BackgroundImageFix" result="effect1_dropShadow" />
			<feBlend mode="normal" in="SourceGraphic" in2="effect1_dropShadow" result="shape" />
		</filter>
		<filter id="filter2_d" x="21.3029" y="17.8877" width="28.1151" height="28.1151" filterUnits="userSpaceOnUse" color-interpolation-filters="sRGB">
			<feFlood flood-opacity="0" result="BackgroundImageFix" />
			<feColorMatrix in="SourceAlpha" type="matrix" values="0 0 0 0 0 0 0 0 0 0 0 0 0 0 0 0 0 0 127 0" result="hardAlpha" />
			<feOffset dy="4" />
			<feGaussianBlur stdDeviation="2" />
			<feColorMatrix type="matrix" values="0 0 0 0 0 0 0 0 0 0 0 0 0 0 0 0 0 0 0.25 0" />
			<feBlend mode="normal" in2="BackgroundImageFix" result="effect1_dropShadow" />
			<feBlend mode="normal" in="SourceGraphic" in2="effect1_dropShadow" result="shape" />
		</filter>
		<filter id="filter3_d" x="19.1282" y="23.8679" width="17.0609" height="19.2355" filterUnits="userSpaceOnUse" color-interpolation-filters="sRGB">
			<feFlood flood-opacity="0" result="BackgroundImageFix" />
			<feColorMatrix in="SourceAlpha" type="matrix" values="0 0 0 0 0 0 0 0 0 0 0 0 0 0 0 0 0 0 127 0" result="hardAlpha" />
			<feOffset dy="4" />
			<feGaussianBlur stdDeviation="2" />
			<feColorMatrix type="matrix" values="0 0 0 0 0 0 0 0 0 0 0 0 0 0 0 0 0 0 0.25 0" />
			<feBlend mode="normal" in2="BackgroundImageFix" result="effect1_dropShadow" />
			<feBlend mode="normal" in="SourceGraphic" in2="effect1_dropShadow" result="shape" />
		</filter>
		<linearGradient id="paint0_linear" x1="45.0423" y1="27.7338" x2="25.0423" y2="47.4261" gradientUnits="userSpaceOnUse">
			<stop stop-color="#330867" />
			<stop offset="0.546875" stop-color="#2B44B8" />
			<stop offset="1" stop-color="#2575FC" />
		</linearGradient>
		<linearGradient id="paint1_linear" x1="35.3604" y1="17.8877" x2="35.3604" y2="38.0028" gradientUnits="userSpaceOnUse">
			<stop stop-color="#330867" />
			<stop offset="1" stop-color="#2575FC" />
		</linearGradient>
		<linearGradient id="paint2_linear" x1="27.6586" y1="23.8679" x2="27.6586" y2="35.1034" gradientUnits="userSpaceOnUse">
			<stop stop-color="#330867" />
			<stop offset="1" stop-color="#2575FC" />
		</linearGradient>
		<clipPath id="clip0">
			<rect width="29.5385" height="29.5385" fill="white" transform="translate(19.5039 17.8877)" />
		</clipPath>
	</defs>
</svg>
