<svg width="24" height="21" viewBox="0 0 24 21" fill="none" xmlns="http://www.w3.org/2000/svg">
<path d="M11.7376 12.6188C12.9181 12.6188 13.8751 11.6618 13.8751 10.4813C13.8751 9.30074 12.9181 8.34375 11.7376 8.34375C10.5571 8.34375 9.6001 9.30074 9.6001 10.4813C9.6001 11.6618 10.5571 12.6188 11.7376 12.6188Z" fill="#61DAFB"/>
<path d="M19.8562 6.95625C19.4437 6.80625 19.0125 6.65625 18.5625 6.525C18.675 6.075 18.7687 5.625 18.8437 5.19375C19.2375 2.71875 18.8062 0.975 17.6062 0.3C17.25 0.0937499 16.8562 0 16.4062 0C15.0937 0 13.425 0.975 11.7375 2.60625C10.05 0.975 8.38125 0 7.06875 0C6.61875 0 6.225 0.0937499 5.86875 0.3C4.66875 0.99375 4.2375 2.7375 4.63125 5.19375C4.70625 5.625 4.8 6.075 4.9125 6.525C4.4625 6.65625 4.03125 6.7875 3.61875 6.95625C1.275 7.85625 0 9.09375 0 10.4812C0 11.8687 1.29375 13.1062 3.61875 14.0062C4.03125 14.1562 4.4625 14.3062 4.9125 14.4375C4.8 14.8875 4.70625 15.3375 4.63125 15.7687C4.2375 18.2437 4.66875 19.9875 5.86875 20.6625C6.225 20.8687 6.61875 20.9625 7.06875 20.9625C8.4 20.9625 10.0687 19.9875 11.7375 18.3562C13.425 19.9875 15.0937 20.9625 16.4062 20.9625C16.8562 20.9625 17.25 20.8687 17.6062 20.6625C18.8062 19.9687 19.2375 18.225 18.8437 15.7687C18.7687 15.3375 18.675 14.8875 18.5625 14.4375C19.0125 14.3062 19.4437 14.175 19.8562 14.0062C22.2 13.1062 23.475 11.8687 23.475 10.4812C23.475 9.09375 22.2 7.85625 19.8562 6.95625ZM17.0812 1.2375C17.85 1.6875 18.1125 3.075 17.7937 5.04375C17.7375 5.4375 17.6437 5.85 17.5312 6.28125C16.5562 6.05625 15.525 5.90625 14.4375 5.8125C13.8 4.9125 13.1437 4.10625 12.4875 3.375C13.875 2.00625 15.2812 1.06875 16.425 1.06875C16.6687 1.06875 16.8937 1.125 17.0812 1.2375V1.2375ZM14.9812 12.3562C14.6437 12.9562 14.25 13.5562 13.8375 14.1562C13.1437 14.2125 12.45 14.2312 11.7375 14.2312C11.0062 14.2312 10.3125 14.2125 9.6375 14.1562C9.225 13.5562 8.85 12.9562 8.5125 12.3562C8.15625 11.7375 7.81875 11.1 7.51875 10.4812C7.81875 9.8625 8.15625 9.225 8.5125 8.60625C8.85 8.00625 9.24375 7.40625 9.65625 6.80625C10.35 6.75 11.0437 6.73125 11.7562 6.73125C12.4875 6.73125 13.1812 6.75 13.8562 6.80625C14.2687 7.40625 14.6437 8.00625 14.9812 8.60625C15.3375 9.225 15.675 9.8625 15.975 10.4812C15.6562 11.1 15.3375 11.7187 14.9812 12.3562ZM16.5375 11.7375C16.8187 12.3937 17.0437 13.0312 17.25 13.6687C16.6125 13.8187 15.9375 13.9312 15.225 14.025C15.45 13.6687 15.6937 13.2937 15.9 12.9C16.125 12.5062 16.3312 12.1125 16.5375 11.7375ZM11.7375 16.8187C11.2875 16.3312 10.8562 15.8062 10.4437 15.2625C10.875 15.2812 11.3062 15.3 11.7375 15.3C12.1687 15.3 12.6 15.2812 13.0312 15.2625C12.6187 15.8062 12.1875 16.3312 11.7375 16.8187ZM8.25 14.0062C7.5375 13.9125 6.8625 13.8 6.225 13.65C6.43125 13.0312 6.65625 12.375 6.9375 11.7187C7.14375 12.0937 7.35 12.4875 7.575 12.8625C7.8 13.275 8.025 13.6312 8.25 14.0062V14.0062ZM6.9375 9.225C6.65625 8.56875 6.43125 7.93125 6.225 7.29375C6.8625 7.14375 7.5375 7.03125 8.25 6.9375C8.025 7.29375 7.78125 7.66875 7.575 8.0625C7.35 8.45625 7.14375 8.85 6.9375 9.225V9.225ZM11.7375 4.14375C12.1875 4.63125 12.6187 5.15625 13.0312 5.7C12.6 5.68125 12.1687 5.6625 11.7375 5.6625C11.3062 5.6625 10.875 5.68125 10.4437 5.7C10.8562 5.15625 11.2875 4.63125 11.7375 4.14375V4.14375ZM15.9 8.08125L15.225 6.95625C15.9375 7.05 16.6125 7.1625 17.25 7.3125C17.0437 7.93125 16.8187 8.5875 16.5375 9.24375C16.3312 8.85 16.125 8.45625 15.9 8.08125V8.08125ZM5.68125 5.04375C5.3625 3.075 5.625 1.6875 6.39375 1.2375C6.58125 1.125 6.80625 1.06875 7.05 1.06875C8.175 1.06875 9.58125 1.9875 10.9875 3.375C10.3312 4.0875 9.675 4.9125 9.0375 5.8125C7.95 5.90625 6.91875 6.075 5.94375 6.28125C5.83125 5.85 5.75625 5.4375 5.68125 5.04375ZM1.05 10.4812C1.05 9.6 2.11875 8.6625 3.99375 7.96875C4.36875 7.81875 4.78125 7.6875 5.19375 7.575C5.49375 8.5125 5.86875 9.50625 6.31875 10.5C5.86875 11.4937 5.475 12.4687 5.19375 13.4062C2.60625 12.6562 1.05 11.5312 1.05 10.4812V10.4812ZM6.39375 19.725C5.625 19.275 5.3625 17.8875 5.68125 15.9187C5.7375 15.525 5.83125 15.1125 5.94375 14.6812C6.91875 14.9062 7.95 15.0562 9.0375 15.15C9.675 16.05 10.3312 16.8562 10.9875 17.5875C9.6 18.9562 8.19375 19.8937 7.05 19.8937C6.80625 19.8937 6.58125 19.8375 6.39375 19.725ZM17.7937 15.9187C18.1125 17.8875 17.85 19.275 17.0812 19.725C16.8937 19.8375 16.6687 19.8937 16.425 19.8937C15.3 19.8937 13.8937 18.975 12.4875 17.5875C13.1437 16.875 13.8 16.05 14.4375 15.15C15.525 15.0562 16.5562 14.8875 17.5312 14.6812C17.6437 15.1125 17.7187 15.525 17.7937 15.9187V15.9187ZM19.4812 12.9937C19.1062 13.1437 18.6937 13.275 18.2812 13.3875C17.9812 12.45 17.6062 11.4562 17.1562 10.4625C17.6062 9.46875 18 8.49375 18.2812 7.55625C20.8687 8.30625 22.425 9.43125 22.425 10.4812C22.425 11.3625 21.3375 12.3 19.4812 12.9937V12.9937Z" fill="#61DAFB"/>
</svg>
