<svg width="33" height="24" viewBox="0 0 33 24" fill="none" xmlns="http://www.w3.org/2000/svg">
<g clip-path="url(#clip0)">
<path d="M27.6603 13.7875C26.5366 13.7939 25.5635 14.0625 24.7474 14.4626C24.446 13.8689 24.1447 13.35 24.0945 12.9626C24.038 12.5126 23.969 12.2375 24.038 11.7001C24.107 11.1625 24.4209 10.4 24.4209 10.3375C24.4146 10.2813 24.3518 10.0063 23.7053 10C23.0587 9.9938 22.4999 10.125 22.4371 10.2938C22.3743 10.4625 22.2488 10.85 22.1672 11.25C22.0542 11.8375 20.8739 13.9188 20.2022 15.0125C19.9825 14.5875 19.7941 14.2125 19.7564 13.9125C19.7 13.4625 19.6308 13.1875 19.7 12.65C19.769 12.1125 20.0829 11.35 20.0829 11.2875C20.0766 11.2313 20.0139 10.9563 19.3673 10.95C18.7206 10.9438 18.1619 11.075 18.0992 11.2438C18.0364 11.4125 17.9673 11.8125 17.8292 12.2C17.6973 12.5875 16.1278 16.0625 15.7198 16.9688C15.5126 17.4313 15.3306 17.8 15.1987 18.05C15.0669 18.3 15.1924 18.0688 15.1799 18.0938C15.0669 18.3063 15.0041 18.425 15.0041 18.425V18.4314C14.9162 18.5876 14.822 18.7375 14.778 18.7375C14.7466 18.7375 14.6839 18.3188 14.7906 17.7439C15.0229 16.5375 15.5879 14.6564 15.5817 14.5876C15.5817 14.5564 15.6883 14.225 15.2175 14.0564C14.7592 13.8876 14.596 14.1689 14.5583 14.1689C14.5206 14.1689 14.4892 14.2689 14.4892 14.2689C14.4892 14.2689 14.9978 12.1502 13.5162 12.1502C12.587 12.1502 11.3064 13.1564 10.6723 14.0752C10.2705 14.2939 9.41671 14.7564 8.51269 15.2502C8.16741 15.4377 7.80957 15.6377 7.47056 15.8189L7.40157 15.7438C5.60609 13.8375 2.28509 12.4875 2.4232 9.92505C2.47343 8.9938 2.79988 6.53755 8.8016 3.56256C13.7172 1.12506 17.6534 1.79381 18.3377 3.28131C19.3107 5.40631 16.2346 9.3563 11.1244 9.92505C9.17828 10.1438 8.15492 9.3938 7.89759 9.11255C7.62764 8.8188 7.58997 8.8063 7.48952 8.86255C7.3263 8.95005 7.42675 9.21255 7.48952 9.3688C7.64019 9.76255 8.26798 10.4625 9.33522 10.8125C10.2706 11.1188 12.5558 11.2875 15.3181 10.2251C18.4131 9.0313 20.83 5.7188 20.1206 2.95006C19.3987 0.131311 14.7028 -0.793689 10.2644 0.77506C7.6213 1.71256 4.75858 3.17506 2.69943 5.09381C0.251053 7.3688 -0.138177 9.3563 0.0250487 10.1813C0.5964 13.125 4.67069 15.0438 6.30294 16.4625C6.22133 16.5062 6.14599 16.55 6.07694 16.5875C5.26081 16.9875 2.15325 18.6063 1.3748 20.3187C0.495891 22.2562 1.51291 23.65 2.19092 23.8375C4.28774 24.4188 6.43478 23.375 7.59619 21.6563C8.75125 19.9375 8.6132 17.7063 8.07958 16.6875L8.06069 16.65L8.70103 16.275C9.11543 16.0313 9.5235 15.8063 9.88128 15.6125C9.68045 16.1562 9.53599 16.8 9.46072 17.7375C9.37283 18.8375 9.82484 20.2625 10.4212 20.825C10.6849 21.0687 10.9988 21.075 11.1934 21.075C11.884 21.075 12.1979 20.5062 12.5432 19.825C12.9701 18.9937 13.3467 18.0312 13.3467 18.0312C13.3467 18.0312 12.8759 20.6375 14.1629 20.6375C14.6337 20.6375 15.1045 20.0312 15.318 19.7187V19.725C15.318 19.725 15.3305 19.7062 15.3557 19.6625C15.382 19.6237 15.4071 19.5841 15.431 19.5438V19.5313C15.6193 19.2063 16.0399 18.4625 16.6677 17.2313C17.4775 15.6438 18.256 13.6563 18.256 13.6563C18.256 13.6563 18.3314 14.1438 18.5637 14.9438C18.7017 15.4189 19.0031 15.9375 19.2353 16.4438C19.047 16.7063 18.934 16.8564 18.934 16.8564L18.9403 16.8626C18.7897 17.0626 18.6201 17.2752 18.4444 17.4876C17.804 18.2501 17.0381 19.1189 16.9377 19.3689C16.8184 19.6626 16.8435 19.8814 17.0758 20.0564C17.2453 20.1814 17.5466 20.2064 17.8668 20.1814C18.4444 20.1439 18.8462 20.0002 19.0471 19.9126C19.361 19.8001 19.7188 19.6314 20.0641 19.3814C20.6919 18.9189 21.0748 18.2627 21.0372 17.3877C21.0183 16.9064 20.8614 16.4314 20.6668 15.9814C20.7233 15.9002 20.7798 15.8189 20.8363 15.7314C21.8282 14.2876 22.5941 12.7002 22.5941 12.7002C22.5941 12.7002 22.6694 13.1877 22.9017 13.9877C23.0209 14.3939 23.2595 14.8377 23.473 15.2752C22.5438 16.0315 21.96 16.9065 21.7591 17.4815C21.3887 18.544 21.6775 19.0252 22.2237 19.1377C22.4684 19.1877 22.8201 19.0752 23.0837 18.9627C23.4101 18.8565 23.8056 18.6752 24.1698 18.4065C24.7976 17.944 25.4003 17.3002 25.3689 16.4315C25.3501 16.0315 25.2433 15.6377 25.0989 15.2627C25.89 14.9377 26.9132 14.7502 28.2128 14.9065C31.0064 15.2315 31.5589 16.969 31.4522 17.694C31.3455 18.419 30.7617 18.819 30.567 18.944C30.3724 19.0627 30.3096 19.1065 30.3284 19.194C30.3535 19.3253 30.4414 19.319 30.6109 19.294C30.8432 19.2565 32.08 18.7003 32.1302 17.3629C32.2055 15.6439 30.567 13.7689 27.6603 13.7875V13.7875ZM6.1146 21.0188C5.19175 22.025 3.89223 22.4063 3.33978 22.0813C2.74338 21.7375 2.97559 20.2563 4.11196 19.1875C4.80252 18.5375 5.70026 17.9375 6.29038 17.5688C6.42222 17.4875 6.62311 17.3689 6.86167 17.225C6.89934 17.2001 6.92445 17.1875 6.92445 17.1875C6.9684 17.1625 7.01862 17.1313 7.06884 17.1C7.48946 18.625 7.08768 19.9625 6.1146 21.0188V21.0188ZM12.8633 16.45C12.5432 17.2313 11.8652 19.2375 11.4571 19.125C11.1055 19.0313 10.8921 17.5125 11.388 16.0125C11.6391 15.2562 12.1727 14.3563 12.4866 14.0062C12.9952 13.4437 13.5476 13.2562 13.6857 13.4875C13.849 13.7875 13.0642 15.9625 12.8633 16.45ZM18.4318 19.1C18.2937 19.1689 18.1682 19.2188 18.1117 19.1814C18.0677 19.1564 18.1681 19.0626 18.1681 19.0626C18.1681 19.0626 18.8649 18.3189 19.1412 17.9751C19.2981 17.7752 19.4864 17.5439 19.6873 17.2814V17.3564C19.6874 18.2563 18.8211 18.8563 18.4318 19.1ZM22.7258 18.125C22.6254 18.05 22.638 17.8188 22.977 17.0938C23.1089 16.8063 23.4101 16.325 23.9312 15.8688C23.994 16.0563 24.0317 16.2375 24.0254 16.4063C24.0191 17.5313 23.2156 17.95 22.7258 18.125Z" fill="#CF649A"/>
</g>
<defs>
<clipPath id="clip0">
<rect width="32.1429" height="24" fill="white"/>
</clipPath>
</defs>
</svg>
