<?xml version="1.0" standalone="no"?>
<!DOCTYPE svg PUBLIC "-//W3C//DTD SVG 20010904//EN"
 "http://www.w3.org/TR/2001/REC-SVG-20010904/DTD/svg10.dtd">
<svg version="1.0" xmlns="http://www.w3.org/2000/svg"
 width="700.000000pt" height="700.000000pt" viewBox="0 0 700.000000 700.000000"
 preserveAspectRatio="xMidYMid meet">
<metadata>
Created by potrace 1.11, written by Peter Selinger 2001-2013
</metadata>
<g transform="translate(0.000000,700.000000) scale(0.100000,-0.100000)"
fill="#000000" stroke="none">
<path d="M418 6990 c-204 -24 -381 -203 -408 -411 -12 -97 -13 -3006 0 -3241
35 -656 223 -1234 574 -1763 591 -889 1526 -1451 2591 -1555 154 -15 496 -15
650 0 1165 114 2182 784 2744 1807 523 954 566 2124 112 3121 -385 848 -1111
1520 -1981 1835 -354 128 -673 190 -1065 207 -252 11 -3122 11 -3217 0z m3567
-88 c383 -62 681 -153 1000 -306 364 -175 655 -383 950 -680 530 -533 850
-1174 965 -1931 28 -180 38 -590 21 -786 -63 -686 -314 -1311 -747 -1854 -113
-141 -378 -406 -519 -519 -501 -399 -1052 -635 -1710 -733 -173 -25 -717 -25
-890 0 -658 98 -1210 334 -1710 733 -143 114 -408 379 -519 519 -395 496 -626
1028 -728 1675 l-23 145 0 1730 0 1730 31 66 c52 109 113 166 233 216 l56 23
1725 -3 1725 -3 140 -22z"/>
<path d="M3480 5545 c-475 -71 -879 -366 -1098 -800 -48 -97 -51 -101 -108
-128 -215 -105 -363 -344 -364 -587 0 -36 -7 -90 -15 -120 -21 -80 -37 -299
-30 -415 13 -204 43 -311 140 -502 70 -138 88 -180 118 -273 19 -61 20 -102
27 -730 4 -366 12 -681 17 -700 l9 -35 359 0 359 0 9 35 c5 19 12 253 16 520
7 474 8 486 30 528 13 26 33 47 49 53 41 16 167 4 262 -25 160 -49 241 -60
440 -60 138 0 208 4 275 18 537 107 976 482 1149 985 63 181 80 282 80 486 1
181 -2 212 -60 559 -46 273 -181 538 -383 749 -291 303 -657 459 -1071 456
-69 -1 -163 -7 -210 -14z m212 -1126 c240 -67 431 -255 506 -499 11 -36 23
-99 27 -141 6 -70 5 -80 -20 -130 -117 -232 -330 -388 -588 -429 -85 -14 -211
-9 -295 11 l-53 13 8 130 c12 188 6 405 -13 489 -9 40 -20 123 -24 184 -7 82
-17 136 -38 198 l-30 85 39 33 c38 33 141 72 209 81 64 8 198 -5 272 -25z"/>
</g>
</svg>
