<svg width="36" height="36" viewBox="0 0 36 36" fill="none" xmlns="http://www.w3.org/2000/svg">
<g filter="url(#filter0_d)">
<path d="M10 9.10345C10 8.49403 10.494 8 11.1034 8H18C22.4183 8 26 11.5817 26 16V16C26 20.4183 22.4183 24 18 24V24C13.5817 24 10 20.4183 10 16V9.10345Z" fill="white"/>
<g clip-path="url(#clip0)">
<g filter="url(#filter1_d)">
<rect x="15.0405" y="16.0681" width="1.51015" height="5.07409" rx="0.755073" fill="url(#paint0_linear)"/>
</g>
<g filter="url(#filter2_d)">
<path fill-rule="evenodd" clip-rule="evenodd" d="M18.4534 18.0011C20.3049 18.0011 21.8059 16.5001 21.8059 14.6485C21.8059 12.797 20.3049 11.296 18.4534 11.296C16.6018 11.296 15.1008 12.797 15.1008 14.6485C15.1008 16.5001 16.6018 18.0011 18.4534 18.0011ZM18.0003 16.6721C19.0011 16.6721 19.8125 15.8608 19.8125 14.86C19.8125 13.8591 19.0011 13.0478 18.0003 13.0478C16.9995 13.0478 16.1881 13.8591 16.1881 14.86C16.1881 15.8608 16.9995 16.6721 18.0003 16.6721Z" fill="url(#paint1_linear)"/>
</g>
<g filter="url(#filter3_d)">
<rect x="14.376" y="13.2894" width="3.02029" height="3.74516" rx="1.51015" fill="url(#paint2_linear)"/>
</g>
</g>
</g>
<defs>
<filter id="filter0_d" x="0" y="0" width="36" height="36" filterUnits="userSpaceOnUse" color-interpolation-filters="sRGB">
<feFlood flood-opacity="0" result="BackgroundImageFix"/>
<feColorMatrix in="SourceAlpha" type="matrix" values="0 0 0 0 0 0 0 0 0 0 0 0 0 0 0 0 0 0 127 0"/>
<feOffset dy="2"/>
<feGaussianBlur stdDeviation="5"/>
<feColorMatrix type="matrix" values="0 0 0 0 0 0 0 0 0 0 0 0 0 0 0 0 0 0 0.25 0"/>
<feBlend mode="normal" in2="BackgroundImageFix" result="effect1_dropShadow"/>
<feBlend mode="normal" in="SourceGraphic" in2="effect1_dropShadow" result="shape"/>
</filter>
<filter id="filter1_d" x="11.0405" y="16.0681" width="9.51015" height="13.0741" filterUnits="userSpaceOnUse" color-interpolation-filters="sRGB">
<feFlood flood-opacity="0" result="BackgroundImageFix"/>
<feColorMatrix in="SourceAlpha" type="matrix" values="0 0 0 0 0 0 0 0 0 0 0 0 0 0 0 0 0 0 127 0"/>
<feOffset dy="4"/>
<feGaussianBlur stdDeviation="2"/>
<feColorMatrix type="matrix" values="0 0 0 0 0 0 0 0 0 0 0 0 0 0 0 0 0 0 0.25 0"/>
<feBlend mode="normal" in2="BackgroundImageFix" result="effect1_dropShadow"/>
<feBlend mode="normal" in="SourceGraphic" in2="effect1_dropShadow" result="shape"/>
</filter>
<filter id="filter2_d" x="11.1008" y="11.296" width="14.705" height="14.705" filterUnits="userSpaceOnUse" color-interpolation-filters="sRGB">
<feFlood flood-opacity="0" result="BackgroundImageFix"/>
<feColorMatrix in="SourceAlpha" type="matrix" values="0 0 0 0 0 0 0 0 0 0 0 0 0 0 0 0 0 0 127 0"/>
<feOffset dy="4"/>
<feGaussianBlur stdDeviation="2"/>
<feColorMatrix type="matrix" values="0 0 0 0 0 0 0 0 0 0 0 0 0 0 0 0 0 0 0.25 0"/>
<feBlend mode="normal" in2="BackgroundImageFix" result="effect1_dropShadow"/>
<feBlend mode="normal" in="SourceGraphic" in2="effect1_dropShadow" result="shape"/>
</filter>
<filter id="filter3_d" x="10.376" y="13.2894" width="11.0203" height="11.7452" filterUnits="userSpaceOnUse" color-interpolation-filters="sRGB">
<feFlood flood-opacity="0" result="BackgroundImageFix"/>
<feColorMatrix in="SourceAlpha" type="matrix" values="0 0 0 0 0 0 0 0 0 0 0 0 0 0 0 0 0 0 127 0"/>
<feOffset dy="4"/>
<feGaussianBlur stdDeviation="2"/>
<feColorMatrix type="matrix" values="0 0 0 0 0 0 0 0 0 0 0 0 0 0 0 0 0 0 0.25 0"/>
<feBlend mode="normal" in2="BackgroundImageFix" result="effect1_dropShadow"/>
<feBlend mode="normal" in="SourceGraphic" in2="effect1_dropShadow" result="shape"/>
</filter>
<linearGradient id="paint0_linear" x1="21.6808" y1="14.5781" x2="15.0141" y2="21.1422" gradientUnits="userSpaceOnUse">
<stop stop-color="#330867"/>
<stop offset="0.546875" stop-color="#2B44B8"/>
<stop offset="1" stop-color="#2575FC"/>
</linearGradient>
<linearGradient id="paint1_linear" x1="18.4534" y1="11.296" x2="18.4534" y2="18.0011" gradientUnits="userSpaceOnUse">
<stop stop-color="#330867"/>
<stop offset="1" stop-color="#2575FC"/>
</linearGradient>
<linearGradient id="paint2_linear" x1="15.8861" y1="13.2894" x2="15.8861" y2="17.0346" gradientUnits="userSpaceOnUse">
<stop stop-color="#330867"/>
<stop offset="1" stop-color="#2575FC"/>
</linearGradient>
<clipPath id="clip0">
<rect width="9.84615" height="9.84615" fill="white" transform="translate(13.168 11.296)"/>
</clipPath>
</defs>
</svg>
