<svg width="44" height="44" viewBox="0 0 44 44" fill="none" xmlns="http://www.w3.org/2000/svg">
<g filter="url(#filter0_d)">
<path d="M10 9.65517C10 8.74105 10.741 8 11.6552 8H22C28.6274 8 34 13.3726 34 20V20C34 26.6274 28.6274 32 22 32V32C15.3726 32 10 26.6274 10 20V9.65517Z" fill="white"/>
<g clip-path="url(#clip0)">
<g filter="url(#filter1_d)">
<rect x="17.5608" y="20.1021" width="2.26522" height="7.61114" rx="1.13261" fill="url(#paint0_linear)"/>
</g>
<g filter="url(#filter2_d)">
<path fill-rule="evenodd" clip-rule="evenodd" d="M22.6802 23.0015C25.4575 23.0015 27.7089 20.7501 27.7089 17.9728C27.7089 15.1954 25.4575 12.944 22.6802 12.944C19.9028 12.944 17.6514 15.1954 17.6514 17.9728C17.6514 20.7501 19.9028 23.0015 22.6802 23.0015ZM22.0006 21.0082C23.5018 21.0082 24.7189 19.7911 24.7189 18.2899C24.7189 16.7886 23.5018 15.5716 22.0006 15.5716C20.4993 15.5716 19.2823 16.7886 19.2823 18.2899C19.2823 19.7911 20.4993 21.0082 22.0006 21.0082Z" fill="url(#paint1_linear)"/>
</g>
<g filter="url(#filter3_d)">
<rect x="16.564" y="15.9341" width="4.53044" height="5.61774" rx="2.26522" fill="url(#paint2_linear)"/>
</g>
</g>
</g>
<defs>
<filter id="filter0_d" x="0" y="0" width="44" height="44" filterUnits="userSpaceOnUse" color-interpolation-filters="sRGB">
<feFlood flood-opacity="0" result="BackgroundImageFix"/>
<feColorMatrix in="SourceAlpha" type="matrix" values="0 0 0 0 0 0 0 0 0 0 0 0 0 0 0 0 0 0 127 0"/>
<feOffset dy="2"/>
<feGaussianBlur stdDeviation="5"/>
<feColorMatrix type="matrix" values="0 0 0 0 0 0 0 0 0 0 0 0 0 0 0 0 0 0 0.25 0"/>
<feBlend mode="normal" in2="BackgroundImageFix" result="effect1_dropShadow"/>
<feBlend mode="normal" in="SourceGraphic" in2="effect1_dropShadow" result="shape"/>
</filter>
<filter id="filter1_d" x="13.5608" y="20.1021" width="10.2652" height="15.6111" filterUnits="userSpaceOnUse" color-interpolation-filters="sRGB">
<feFlood flood-opacity="0" result="BackgroundImageFix"/>
<feColorMatrix in="SourceAlpha" type="matrix" values="0 0 0 0 0 0 0 0 0 0 0 0 0 0 0 0 0 0 127 0"/>
<feOffset dy="4"/>
<feGaussianBlur stdDeviation="2"/>
<feColorMatrix type="matrix" values="0 0 0 0 0 0 0 0 0 0 0 0 0 0 0 0 0 0 0.25 0"/>
<feBlend mode="normal" in2="BackgroundImageFix" result="effect1_dropShadow"/>
<feBlend mode="normal" in="SourceGraphic" in2="effect1_dropShadow" result="shape"/>
</filter>
<filter id="filter2_d" x="13.6514" y="12.944" width="18.0576" height="18.0576" filterUnits="userSpaceOnUse" color-interpolation-filters="sRGB">
<feFlood flood-opacity="0" result="BackgroundImageFix"/>
<feColorMatrix in="SourceAlpha" type="matrix" values="0 0 0 0 0 0 0 0 0 0 0 0 0 0 0 0 0 0 127 0"/>
<feOffset dy="4"/>
<feGaussianBlur stdDeviation="2"/>
<feColorMatrix type="matrix" values="0 0 0 0 0 0 0 0 0 0 0 0 0 0 0 0 0 0 0.25 0"/>
<feBlend mode="normal" in2="BackgroundImageFix" result="effect1_dropShadow"/>
<feBlend mode="normal" in="SourceGraphic" in2="effect1_dropShadow" result="shape"/>
</filter>
<filter id="filter3_d" x="12.564" y="15.9341" width="12.5304" height="13.6177" filterUnits="userSpaceOnUse" color-interpolation-filters="sRGB">
<feFlood flood-opacity="0" result="BackgroundImageFix"/>
<feColorMatrix in="SourceAlpha" type="matrix" values="0 0 0 0 0 0 0 0 0 0 0 0 0 0 0 0 0 0 127 0"/>
<feOffset dy="4"/>
<feGaussianBlur stdDeviation="2"/>
<feColorMatrix type="matrix" values="0 0 0 0 0 0 0 0 0 0 0 0 0 0 0 0 0 0 0.25 0"/>
<feBlend mode="normal" in2="BackgroundImageFix" result="effect1_dropShadow"/>
<feBlend mode="normal" in="SourceGraphic" in2="effect1_dropShadow" result="shape"/>
</filter>
<linearGradient id="paint0_linear" x1="27.5211" y1="17.867" x2="17.5211" y2="27.7132" gradientUnits="userSpaceOnUse">
<stop stop-color="#330867"/>
<stop offset="0.546875" stop-color="#2B44B8"/>
<stop offset="1" stop-color="#2575FC"/>
</linearGradient>
<linearGradient id="paint1_linear" x1="22.6802" y1="12.944" x2="22.6802" y2="23.0015" gradientUnits="userSpaceOnUse">
<stop stop-color="#330867"/>
<stop offset="1" stop-color="#2575FC"/>
</linearGradient>
<linearGradient id="paint2_linear" x1="18.8292" y1="15.9341" x2="18.8292" y2="21.5518" gradientUnits="userSpaceOnUse">
<stop stop-color="#330867"/>
<stop offset="1" stop-color="#2575FC"/>
</linearGradient>
<clipPath id="clip0">
<rect width="14.7692" height="14.7692" fill="white" transform="translate(14.752 12.944)"/>
</clipPath>
</defs>
</svg>
