<svg width="22" height="22" viewBox="0 0 22 22" fill="none" xmlns="http://www.w3.org/2000/svg">
<path fill-rule="evenodd" clip-rule="evenodd" d="M21 15.589C21.642 14.1922 22 12.6379 22 11C22 9.36207 21.642 7.80776 21 6.41103V4.05556C21 2.37111 19.6289 1 17.9444 1H15.589C14.1922 0.357992 12.6379 0 11 0C9.36207 0 7.80776 0.357992 6.41103 1H4.05556C2.37111 1 1 2.37111 1 4.05556V6.41103C0.357992 7.80776 0 9.36207 0 11C0 12.6379 0.357992 14.1922 1 15.589V17.9444C1 19.6289 2.37111 21 4.05556 21H6.41103C7.80776 21.642 9.36207 22 11 22C12.6379 22 14.1922 21.642 15.589 21H17.9444C19.6289 21 21 19.6289 21 17.9444V15.589Z" fill="url(#paint0_linear_999_157)"/>
<path d="M6.34701 6C5.76181 6 4 8.08318 4 11.1592C4 13.8537 5.70468 16 6.37435 16C6.55635 16 6.8 15.7864 6.8 15.5684C6.8 15.3919 6.62266 15.1548 6.19753 14.6563C6.10046 14.5418 6.01537 14.4424 5.97057 14.3799C5.33404 13.4884 4.9212 12.2638 4.93333 10.9893C4.94593 9.67876 5.40534 8.31508 6.36341 7.20508L6.4263 7.13281C6.58404 6.95281 6.8 6.70691 6.8 6.46191C6.8 6.21691 6.54674 6 6.34701 6ZM15.653 6C15.4533 6 15.2 6.21691 15.2 6.46191C15.2 6.70691 15.416 6.95331 15.5737 7.13281L15.6366 7.20508C16.5947 8.31458 17.0541 9.67876 17.0667 10.9893C17.0788 12.2638 16.666 13.4884 16.0294 14.3799C15.9846 14.4424 15.8995 14.5418 15.8025 14.6563C15.3773 15.1548 15.2 15.3919 15.2 15.5684C15.2 15.7864 15.4437 16 15.6257 16C16.2953 16 18 13.8537 18 11.1592C18 8.08318 16.2382 6 15.653 6ZM9.64284 6.5127C9.58063 6.52897 9.54258 6.56448 9.54258 6.62598C9.54258 6.68748 9.60389 6.72841 9.65195 6.75391C9.87222 6.89741 10.1214 7.3024 10.1214 7.7334C10.1214 8.9179 8.73776 9.99459 8.73776 11.2256C8.73309 12.2616 9.41325 13.0875 10.3036 13.4365C10.4091 13.4825 10.5953 13.5693 10.5953 13.4053C10.5953 13.3383 10.5431 13.334 10.4951 13.3135C10.2893 13.226 10.1603 13.1179 10.0357 12.9229C9.83921 12.6149 9.79596 12.3021 9.79596 11.9326C9.79596 11.1121 10.8542 10.9632 10.8542 10.1377C10.8542 9.8247 10.6673 9.73251 10.6673 9.64551C10.6673 9.58901 10.6866 9.58887 10.7393 9.58887C10.9311 9.58887 11.1941 9.92718 11.2753 10.0967C11.328 10.2147 11.3327 10.2509 11.3327 10.3789C11.3327 10.5584 11.3181 10.7432 11.3181 10.9277C11.3181 11.6202 12.0792 11.4351 12.0792 11.1016C12.0792 10.9481 11.9935 10.8048 11.9935 10.6563C11.9935 10.6353 11.9935 10.625 12.0126 10.625C12.0938 10.625 12.2369 10.8203 12.2751 10.8818C12.4137 11.1123 12.4811 11.4145 12.4811 11.6865C12.4811 12.5175 11.7729 12.9426 11.7729 13.1221C11.7729 13.1481 11.8443 13.3228 12.0646 13.1738C12.773 12.7838 13.3333 11.9531 13.3333 10.8711C13.3333 10.0091 13.1277 9.38888 12.5677 8.75488C12.472 8.64688 12.1747 8.31836 12.0263 8.31836C11.8298 8.31836 12.1986 8.79516 12.1986 9.11816C12.1986 9.30266 12.0838 9.43652 11.9069 9.43652C11.6292 9.43652 11.5568 8.78508 11.5232 8.58008C11.3846 7.71358 11.2171 7.08762 10.413 6.68262C10.2261 6.58624 9.82948 6.46388 9.64284 6.5127ZM8.20091 14.5C7.94098 14.5 7.74427 14.7188 7.74427 15.0078C7.74427 15.2793 7.94938 15.5 8.20091 15.5H13.8747C13.9667 15.5 14.2667 15.4632 14.2667 14.9922C14.2667 14.6932 14.1127 14.5 13.8747 14.5H8.20091Z" fill="white"/>
<defs>
<linearGradient id="paint0_linear_999_157" x1="11" y1="0" x2="11" y2="22" gradientUnits="userSpaceOnUse">
<stop stop-color="#330867"/>
<stop offset="1" stop-color="#2575FC"/>
</linearGradient>
</defs>
</svg>
