<svg width="22" height="22" viewBox="0 0 22 22" fill="none" xmlns="http://www.w3.org/2000/svg">
<path fill-rule="evenodd" clip-rule="evenodd" d="M21 15.589C21.642 14.1922 22 12.6379 22 11C22 9.36207 21.642 7.80776 21 6.41103V4.05556C21 2.37111 19.6289 1 17.9444 1H15.589C14.1922 0.357992 12.6379 0 11 0C9.36207 0 7.80776 0.357992 6.41103 1H4.05556C2.37111 1 1 2.37111 1 4.05556V6.41103C0.357992 7.80776 0 9.36207 0 11C0 12.6379 0.357992 14.1922 1 15.589V17.9444C1 19.6289 2.37111 21 4.05556 21H6.41103C7.80776 21.642 9.36207 22 11 22C12.6379 22 14.1922 21.642 15.589 21H17.9444C19.6289 21 21 19.6289 21 17.9444V15.589Z" fill="url(#paint0_linear_999_158)"/>
<path d="M7.81818 16.1851C8.06955 16.1851 8.27273 15.9782 8.27273 15.7222V9.70369C8.27273 9.44767 8.06955 9.24073 7.81818 9.24073H6.45455C6.20318 9.24073 6 9.44767 6 9.70369V15.7222C6 15.9782 6.20318 16.1851 6.45455 16.1851H7.81818Z" fill="white"/>
<path d="M6 7.1574C6 7.79675 6.50864 8.3148 7.13636 8.3148C7.76409 8.3148 8.27273 7.79675 8.27273 7.1574C8.27273 6.51805 7.76409 6 7.13636 6C6.50864 6 6 6.51805 6 7.1574Z" fill="white"/>
<path d="M15.5455 16.1851C15.7968 16.1851 16 15.9782 16 15.7222V12.0185C16 10.4866 14.7768 9.24073 13.2727 9.24073C12.5736 9.24073 11.9377 9.51202 11.4545 9.95415V9.70369C11.4545 9.44767 11.2514 9.24073 11 9.24073H9.63636C9.385 9.24073 9.18182 9.44767 9.18182 9.70369V15.7222C9.18182 15.9782 9.385 16.1851 9.63636 16.1851H11C11.2514 16.1851 11.4545 15.9782 11.4545 15.7222V12.25C11.4545 11.6115 11.9641 11.0926 12.5909 11.0926C13.2177 11.0926 13.7273 11.6115 13.7273 12.25V15.7222C13.7273 15.9782 13.9305 16.1851 14.1818 16.1851H15.5455Z" fill="white"/>
<defs>
<linearGradient id="paint0_linear_999_158" x1="11" y1="0" x2="11" y2="22" gradientUnits="userSpaceOnUse">
<stop stop-color="#330867"/>
<stop offset="1" stop-color="#2575FC"/>
</linearGradient>
</defs>
</svg>
