<svg width="22" height="22" viewBox="0 0 22 22" fill="none" xmlns="http://www.w3.org/2000/svg">
<path fill-rule="evenodd" clip-rule="evenodd" d="M21 15.589C21.642 14.1922 22 12.6379 22 11C22 9.36207 21.642 7.80776 21 6.41103V4.05556C21 2.37111 19.6289 1 17.9444 1H15.589C14.1922 0.357992 12.6379 0 11 0C9.36207 0 7.80776 0.357992 6.41103 1H4.05556C2.37111 1 1 2.37111 1 4.05556V6.41103C0.357992 7.80776 0 9.36207 0 11C0 12.6379 0.357992 14.1922 1 15.589V17.9444C1 19.6289 2.37111 21 4.05556 21H6.41103C7.80776 21.642 9.36207 22 11 22C12.6379 22 14.1922 21.642 15.589 21H17.9444C19.6289 21 21 19.6289 21 17.9444V15.589Z" fill="url(#paint0_linear_999_159)"/>
<path d="M8 6V7.74609L6.00098 8.91211L6 8.91309V15.5H16V8.91309L14 7.74609V6H8ZM9 7H13V10.667L11 11.9111L9 10.666L9 7ZM8 8.90332V10.0439L7.05371 9.45508L8 8.90332ZM14 8.9043L14.9463 9.45606L14 10.0449V8.9043Z" fill="white"/>
<defs>
<linearGradient id="paint0_linear_999_159" x1="11" y1="0" x2="11" y2="22" gradientUnits="userSpaceOnUse">
<stop stop-color="#330867"/>
<stop offset="1" stop-color="#2575FC"/>
</linearGradient>
</defs>
</svg>
